<svg height="512" viewBox="0 0 24 24" width="512" xmlns="http://www.w3.org/2000/svg"><g id="Bell"><path d="m20 13.171v-4.171a8 8 0 0 0 -16 0v4.169a2.845 2.845 0 0 0 -1.107.7 2.937 2.937 0 0 0 -.893 2.131 3 3 0 0 0 3 3h2.1a5 5 0 0 0 9.8 0h2.1a3.015 3.015 0 0 0 3-3 3.006 3.006 0 0 0 -2-2.829zm-8 7.829a3.006 3.006 0 0 1 -2.829-2h5.658a3.006 3.006 0 0 1 -2.829 2zm7.693-4.287a.959.959 0 0 1 -.693.287h-14a1 1 0 0 1 -1-1 .977.977 0 0 1 .307-.713.959.959 0 0 1 .693-.287 1 1 0 0 0 1-1v-5a6 6 0 1 1 12 0v5a1 1 0 0 0 1 1 1 1 0 0 1 1 1 .977.977 0 0 1 -.307.713z"/></g></svg>