<svg id="Layer_1" enable-background="new 0 0 511.997 511.997" height="512" viewBox="0 0 511.997 511.997" width="512" xmlns="http://www.w3.org/2000/svg"><g><path d="m256.01 378.426 38.768-50.14h86.566v-158.664h-250.664v158.665h86.562zm40.002-144.801h30.002v30h-30.002zm-55.003 0h30.002v30h-30.002zm-24.135 30h-30.002v-30h30.002z"/><path d="m412.37 450.104h-102.792v-31.813h-61.548c-25.138 0-45.589 20.45-45.589 45.588v2.451c0 25.138 20.451 45.589 45.589 45.589h61.548v-31.814h132.792v-114.229l18.435-.08c28.228 0 51.192-22.965 51.192-51.191v-72.918c0-28.228-22.964-51.192-51.192-51.192h-18.435v-33.572c0-86.484-70.36-156.844-156.844-156.844h-59.033c-86.484 0-156.844 70.359-156.844 156.844v33.717h-18.457c-28.228-.001-51.192 22.964-51.192 51.191v72.918c0 28.228 22.964 51.192 51.192 51.192h48.458v-209.019c0-69.941 56.902-126.844 126.844-126.844h59.033c69.942 0 126.844 56.902 126.844 126.844v293.182z"/></g></svg>