<svg id="Layer_1" enable-background="new 0 0 100 100" height="512" viewBox="0 0 100 100" width="512" xmlns="http://www.w3.org/2000/svg"><g><path d="m78.5 20.6h-23.8c-2.8 0-4.7 1.9-4.7 4.7s1.9 4.7 4.7 4.7h24.3c6.5 0 12.1 5.6 12.1 12.1v17.3c0 6.5-5.6 12.1-12.1 12.1h-24.3c-5.6 0-10.3-3.7-11.7-8.9l-8.9-30.8-6.1-21.9c-1.8-5.2-6.5-8.9-12.1-8.9h-11.2c-2.8 0-4.7 1.9-4.7 4.7s1.9 4.7 4.7 4.7h11.2c1.4 0 2.8.9 3.3 2.3l6.5 21.5 8.4 31.3c2.3 9.3 11.2 15.9 20.6 15.9h23.8c11.7 0 21.5-9.8 21.5-21.5v-17.4c0-12.1-9.3-21.9-21.5-21.9z"/><path d="m49.1 89.7h-3.7c-2.8 0-4.7 1.9-4.7 4.7s1.9 4.7 4.7 4.7h3.7c2.8 0 4.7-1.9 4.7-4.7-.1-2.9-1.9-4.7-4.7-4.7z"/><path d="m91.1 89.7h-3.7c-2.8 0-4.7 1.9-4.7 4.7s1.9 4.7 4.7 4.7h3.7c2.8 0 4.7-1.9 4.7-4.7 0-2.9-1.9-4.7-4.7-4.7z"/></g></svg>