<svg id="Capa_1" enable-background="new 0 0 512 512" height="512" viewBox="0 0 512 512" width="512" xmlns="http://www.w3.org/2000/svg"><g><path d="m66.444 121.733v370.085c0 11.146 9.036 20.182 20.182 20.182h338.749c11.146 0 20.182-9.036 20.182-20.182v-358.93z" fill="#f6f9f9"/><path d="m404.349 132.888v207.129c0 83.605-67.775 151.379-151.38 151.379h-186.525v.422c0 11.146 9.036 20.182 20.182 20.182h338.749c11.146 0 20.182-9.036 20.182-20.182v-358.93z" fill="#e7ecf1"/><path d="m337.47 421.258c0-9.579 7.765-17.344 17.345-17.344h3.88c17.771-22.37 28.386-50.68 28.386-81.47 0-72.393-58.687-131.08-131.08-131.08s-131.08 58.687-131.08 131.08 58.687 131.08 131.08 131.08c30.789 0 59.099-10.616 81.47-28.387v-3.879z" fill="#a2f4c1"/><path d="m293.048 196.673c32.061 23.896 52.824 62.106 52.824 105.167 0 72.393-58.687 131.08-131.08 131.08-12.867 0-25.3-1.854-37.048-5.31 21.84 16.278 48.923 25.913 78.256 25.913 30.789 0 59.099-10.616 81.47-28.387l21.224-21.224c17.771-22.37 28.386-50.68 28.386-81.47 0-59.525-39.68-109.784-94.032-125.769z" fill="#78d0b1"/><path d="m86.626 41.103c-11.146 0-20.182 9.036-20.182 20.182v71.603h379.113v-71.603c0-11.146-9.036-20.182-20.182-20.182z" fill="#e4989d"/><path d="m425.374 41.103h-21.025v44.242c0 14.878-12.061 26.939-26.939 26.939h-310.966v20.604h379.113v-71.603c-.001-11.146-9.036-20.182-20.183-20.182z" fill="#e28086"/><path d="m445.556 327.485c0 48.936-19.44 95.868-54.043 130.472-34.603 34.603-81.536 54.043-130.472 54.043 42.211 0 76.429-34.218 76.429-76.429v-14.313c0-9.579 7.765-17.344 17.344-17.344h14.314c42.21-.001 76.428-34.219 76.428-76.429z" fill="#dae4ea"/><path d="m261.044 512h-.004z" fill="#c6d0da"/><path d="m445.556 327.505c-.009 34.314-22.631 63.343-53.774 72.995-12.969 29.724-35.206 54.477-63.059 70.607-12.791 24.313-38.299 40.892-67.679 40.893 48.936-.001 95.866-19.441 130.469-54.044 34.599-34.598 54.038-81.522 54.043-130.451z" fill="#c6d0da"/><path d="m234.92 387.371-62.048-62.048c-1.59-1.59-1.59-4.169 0-5.759l25.646-25.646c1.59-1.59 4.169-1.59 5.759 0l30.643 30.643c1.59 1.59 4.169 1.59 5.759 0l67.044-67.044c1.59-1.59 4.169-1.59 5.759 0l25.646 25.646c1.59 1.59 1.59 4.169 0 5.759l-98.449 98.449c-1.591 1.59-4.169 1.59-5.759 0z" fill="#fff"/><g fill="#dae4ea"><path d="m143.057 94.103c-12.389 0-22.433-10.044-22.433-22.433v-49.237c0-12.39 10.043-22.433 22.433-22.433 12.389 0 22.433 10.043 22.433 22.433v49.238c-.001 12.389-10.044 22.432-22.433 22.432z"/><path d="m256 94.103c-12.389 0-22.433-10.044-22.433-22.433v-49.237c0-12.39 10.044-22.433 22.433-22.433 12.389 0 22.433 10.043 22.433 22.433v49.238c0 12.389-10.044 22.432-22.433 22.432z"/><path d="m368.943 94.103c-12.389 0-22.433-10.044-22.433-22.433v-49.237c0-12.39 10.044-22.433 22.433-22.433 12.389 0 22.433 10.043 22.433 22.433v49.238c0 12.389-10.043 22.432-22.433 22.432z"/></g></g></svg>