<svg id="Capa_1" enable-background="new 0 0 512 512" height="512" viewBox="0 0 512 512" width="512" xmlns="http://www.w3.org/2000/svg"><g><path d="m303.699 249.374-65.367 65.367-30.031-30.032c-2.928-2.927-7.678-2.929-10.607 0l-30.484 30.485c-2.929 2.929-2.929 7.678 0 10.606l65.819 65.82c2.928 2.927 7.678 2.929 10.607 0l101.155-101.155c2.929-2.929 2.929-7.678 0-10.606l-30.484-30.485c-2.928-2.927-7.678-2.929-10.608 0zm-65.367 126.337-55.213-55.214 19.878-19.878 30.031 30.032c2.929 2.929 7.677 2.929 10.607 0l65.367-65.367 19.878 19.878z"/><path d="m447.503 484.909v-417.92c0-14.938-12.153-27.091-27.091-27.091h-25.502v-10.623c0-16.142-13.133-29.275-29.275-29.275s-29.276 13.133-29.276 29.275v10.623h-51.083v-10.623c-.001-16.142-13.133-29.275-29.276-29.275s-29.275 13.133-29.275 29.275v10.623h-51.084v-10.623c0-16.142-13.133-29.275-29.276-29.275s-29.275 13.133-29.275 29.275v10.623h-25.502c-14.938 0-27.091 12.153-27.091 27.091v371.466c0 4.142 3.357 7.5 7.5 7.5s7.5-3.358 7.5-7.5v-294.461h299.176c4.143 0 7.5-3.358 7.5-7.5s-3.357-7.5-7.5-7.5h-299.176v-62.005c0-6.667 5.424-12.091 12.091-12.091h25.502v22.172c0 16.143 13.133 29.275 29.275 29.275s29.275-13.133 29.275-29.275v-22.172h51.084v22.172c0 16.143 13.133 29.275 29.275 29.275s29.275-13.133 29.275-29.275v-22.172h51.083v22.172c0 16.143 13.134 29.275 29.276 29.275s29.275-13.133 29.275-29.275v-22.172h25.502c6.667 0 12.091 5.424 12.091 12.091v62.005h-18.83c-4.143 0-7.5 3.358-7.5 7.5s3.357 7.5 7.5 7.5h18.83v181.396c0 35.277-27.534 64.245-62.24 66.542 3.505-5.595 6.595-11.441 9.24-17.487 1.66-3.795-.07-8.217-3.865-9.877-3.796-1.659-8.218.071-9.877 3.866-3.661 8.369-8.284 16.307-13.765 23.646-13.464 0-24.413 10.823-24.413 24.415-20.777 15.545-45.449 23.742-71.583 23.742-66.025 0-119.74-53.715-119.74-119.74s53.715-119.74 119.74-119.74c71.783 0 128.022 63.179 118.754 135.182-.529 4.108 2.372 7.868 6.48 8.396 4.11.529 7.867-2.373 8.396-6.48 10.442-81.037-52.911-152.098-133.628-152.098-74.296 0-134.74 60.444-134.74 134.74s60.444 134.74 134.74 134.74c25.669 0 50.088-7.029 71.434-20.454-2.308 34.695-31.271 62.217-66.541 62.217h-169.305c-6.667 0-12.091-5.424-12.091-12.091v-11.454c0-4.142-3.357-7.5-7.5-7.5s-7.5 3.358-7.5 7.5v11.454c0 14.938 12.153 27.091 27.091 27.091h328.824c14.938 0 27.091-12.153 27.091-27.091zm-286.862-407.838c0 7.872-6.404 14.275-14.275 14.275s-14.275-6.404-14.275-14.275v-47.796c0-7.872 6.404-14.275 14.275-14.275s14.275 6.404 14.275 14.275zm109.634 0c0 7.872-6.404 14.275-14.275 14.275s-14.275-6.404-14.275-14.275v-47.796c0-7.871 6.404-14.275 14.275-14.275s14.275 6.404 14.275 14.275zm109.635 0c0 7.872-6.404 14.275-14.275 14.275-7.872 0-14.276-6.404-14.276-14.275v-47.796c0-7.872 6.404-14.275 14.276-14.275 7.871 0 14.275 6.404 14.275 14.275zm-37.327 353.239c0-8.35 0-4.225 0-13.894 0-5.148 4.188-9.336 9.336-9.336h13.895c21.782 0 41.602-8.571 56.262-22.515-17.218 46.984-54.919 84.751-102.008 102.007 13.945-14.66 22.515-34.48 22.515-56.262zm77.829 66.69h-86.218c43.063-18.384 78.951-52.961 98.309-98.308v86.218c0 6.666-5.424 12.09-12.091 12.09z"/></g></svg>