<svg clip-rule="evenodd" fill-rule="evenodd" height="512" image-rendering="optimizeQuality" shape-rendering="geometricPrecision" text-rendering="geometricPrecision" viewBox="0 0 6.82666 6.82666" width="512" xmlns="http://www.w3.org/2000/svg"><g id="Layer_x0020_1"><circle cx="3.413" cy="3.413" fill="#96f" r="3.333"/><g id="_451992328" fill="#fefefe"><path id="_451992472" d="m3.41333 3.51974c.0566575-.00000394.103055-.0444291.106264-.100244l.00010236-.00215748.00008268-.00401575c.00000394-.0586772-.0477205-.106409-.106445-.106409-.0586142 0-.106453.0477362-.106453.106409 0 .0586772.0478228.106417.106449.106417z"/><path id="_451992592" d="m3.81017 4.10569-.234524-.542957c-.0301417.0327008-.0700157.0563031-.114984.0661614l.349508.476795z"/><path id="_451992304" d="m3.47576 3.20163-.0624291-.440268-.0624331.440268c.0197992-.00584646.040752-.00900394.0624291-.00900394.0216772 0 .042626.00315748.0624331.00900394z"/><path id="_451992784" d="m5.23434 3.35618c-.00381496-.123114-.0199173-.243177-.0471063-.35902l-.259295.0694843c-.00498031.00133071-.00994094.00196457-.0148031.00196457-.0252874 0-.048315-.0168307-.0551614-.0423701-.00823228-.0304764.0099252-.0618031.040378-.0699803l.259268-.0694724c-.0353386-.116783-.0821102-.228646-.139008-.334287l-.232063.133957c-.0089252.00520079-.018748.00766142-.0284567.00765354-.0197559 0-.0390079-.0102283-.0495197-.028563-.0157717-.0273386-.00644882-.0622835.0208307-.078063l.231902-.13387c-.0640354-.102878-.138031-.198941-.220642-.286835l-.35737.357378c-.0111142.0111614-.025811.0167441-.040378.0167402-.0146024 0-.0292835-.00556693-.0403937-.0167283-.022311-.0223228-.0223228-.0584921 0-.0808071l.167382-.167378.00096457-.00099213.189067-.189043c-.0879134-.0825945-.183996-.156571-.286902-.220583l-.133803.231839c-.0106024.0183346-.0298661.0285906-.0495984.0285827-.00970866 0-.0195512-.00246457-.0284803-.00766142-.0273701-.0157795-.0367087-.0507244-.0209331-.0780551l.133969-.23198c-.10565-.056874-.217516-.103634-.334303-.138953l-.0694921.259185c-.00685433.0255197-.029878.0423622-.0551575.0423504-.00486614 0-.00983858-.00061417-.0147992-.00195276-.0304449-.00816929-.0486102-.0394921-.040374-.0699803l.0694409-.25922c-.115854-.0271732-.235917-.0432756-.359028-.0470906l.00000394.506295c0 .0315591-.0255984.0571496-.0571417.0571417-.0315394 0-.0571457-.0255748-.0571457-.0571339v-.506303c-.123106.00381496-.243161.0199173-.358996.0471024l.0695118.259201c.00814567.0304921-.00992126.0618228-.0404764.0699882-.00494882.00133071-.00992126.00196457-.0147677.00195276-.0252047 0-.0483307-.0168228-.0551732-.0423504l-.0694213-.259193c-.11678.0353346-.228642.0821024-.33428.138996l.133874.231937c.0157795.0273307.00643307.0622874-.0209528.078063-.00891732.00519685-.0187441.00766929-.0284685.00766142-.0197323 0-.0389882-.0102402-.0495039-.0285748l-.133831-.231787c-.10289.0640354-.198961.138035-.286858.220642l.188945.188917.00054331.00055512.167827.167815c.0223228.0223228.0223031.0585039-.00001968.080815-.0110984.0111496-.0257913.0167323-.0403622.0167283-.0145748 0-.0292795-.00556693-.0403898-.0167283l-.357315-.357323c-.0825906.0878937-.156571.183957-.220587.286843l.231772.133783c.0273031.0157913.0367047.0507441.0209331.0780748-.0106181.0183189-.0298661.0285709-.0495906.028563-.00973228 0-.0195591-.00245276-.0284882-.00764961l-.231933-.133894c-.0568819.105638-.10365.217488-.138976.334264l.259106.0694252c.0305591.0081811.0486102.0395079.0404724.0699843-.00683465.0255315-.0299606.0423701-.0551378.0423701-.00498031 0-.00994094-.00062205-.0149016-.00196063l-.259161-.0694488c-.0271772.115835-.0432795.235882-.0470906.35898h.268161.00009843.238004c.0315433 0 .0571339.0255866.0571339.0571457.00001181.0315433-.0255984.0571417-.0571339.0571378h-.238102-.268232c.00381496.123106.0199173.243169.0470984.359008l.259236-.0694764c.0304488-.00816929.0617953.00990551.0700276.0404134.00814173.0304685-.00992126.061815-.0404724.0699803l-.259181.0694528c.0353307.11678.0820945.228634.138984.334272l.232004-.133929c.0272992-.0157559.0621969-.00641339.0780748.0209173.0157874.0273307.00635039.0622756-.0209331.0780591l-.231846.133839c.0640197.102882.138024.198949.220622.286839l.357366-.357366c.0223228-.0223189.0584213-.022311.0807402.00001181.0223425.0222992.0223228.0584921 0 .0808031l-.167598.167598-.00075197.00077559-.189028.189012c.0879055.0826024.183996.156583.286898.220602l.133894-.231835c.0157559-.0273346.0506772-.0367205.0779528-.0209252.0274016.0157795.0367126.0507362.020937.0780551l-.13389.232004c.10565.056874.217528.103634.334319.138949l.0694291-.259201c.00812205-.0304921.0394685-.0486063.0699252-.0404016.0305669.00816929.0486102.0395039.0404764.0699764l-.0694961.25922c.115831.0271772.235886.0432677.35898.0470787v-.506287c0-.0315512.0255945-.057122.0571417-.057122.0315669-.00000787.0571417.0255748.0571417.0571299l.00000394.506346c.123114-.00381102.243177-.0199173.359024-.0471024l-.0694213-.259264c-.00824016-.0304803.00990157-.0618031.0403543-.0699764.0304685-.00816929.0618071.00990945.0699409.0404055l.0695236.259213c.116776-.0353346.228638-.0821024.334276-.138996l-.133941-.231972c-.0157835-.0273228-.00646457-.0622717.0209173-.0780551.0273858-.0157953.0622992-.00639764.0780748.0209252l.133807.231823c.102882-.0640276.198949-.138024.286843-.220618l-.188996-.188988-.00094488-.0009685-.167402-.167409c-.0223228-.022315-.0223346-.0584843-.00001181-.0807953.0223346-.0223425.0584291-.0223228.080752 0l.357449.357421c.0825945-.0878976.156575-.183976.220591-.286866l-.231906-.133882c-.0272756-.0157913-.0366063-.0507205-.0208346-.0780551.0157913-.0273346.0506929-.0366929.0779724-.0209134l.232071.133965c.056874-.10565.103634-.217512.138957-.334299l-.259213-.0694685c-.0304449-.00816929-.0486181-.0395-.0403858-.0699764.00815354-.0305039.0394843-.048622.0699449-.0404094l.259268.0694724c.0271772-.115843.0432717-.235902.0470866-.359008h-.268256-.238079c-.0315669 0-.0571654-.0255827-.0571654-.0571378.00001968-.0315669.0255984-.0571457.0571457-.0571457h.506421zm-1.7644628-1.0099219.136.959252c.017374.0308937.0275354.0663661.0281575.104122l.481776 1.11551c.0115197.0266969.00109055.0577992-.0241063.0722402-.00892913.00510236-.0186535.00755906-.0283701.00755906-.0176535 0-.0350236-.00820079-.0461339-.0233701l-.717665-.979228c-.0639921-.0386772-.106839-.108929-.106839-.189016.00000394-.039063.0102087-.0757835.0280709-.107638l.136028-.959433c.00397244-.0281693.028063-.0491142.0565394-.0491181.0284843 0 .0525748.0209488.0565433.049122z"/><path id="_451992736" d="m3.41333 5.48965c1.14485-.00000394 2.07629-.931445 2.07629-2.07632.00000787-1.14489-.931453-2.0763-2.07629-2.07631-1.14484 0-2.0763.931441-2.0763 2.07631 0 1.14486.931449 2.07632 2.07629 2.07632zm1.93619623-2.0763172c0 .349748-.0932677.678091-.256181.961555-.00092913.00221654-.00200787.00439764-.00324016.0065315-.00125591.00216929-.00262992.00422047-.00411024.00615748-.082563.141181-.18248.271035-.296807.386606l-.00009449.00013386-.00009055.00013386-.00018898.00027165-.00009449.00013386-.00009843.00013386-.00009449.0001378-.00009449.00013386-.00009449.00012992-.00009843.0001378-.00009843.00013386-.00009843.00013386-.00009843.00012992-.00009843.00013386-.00009843.00013386-.00009843.00013386-.00009843.00012992-.00010236.00013386-.00010236.00012992-.00010236.00012992-.00009843.00013386-.00010236.00012992-.00010236.00012992-.00010236.00012992-.0001063.00013386-.00010236.00012598-.00010236.00012992-.0001063.00012992-.00010236.00012992-.00002756.00003543-.00007874.00009449-.0001063.00012992-.00042913.00051181-.0001063.00012992-.00011024.00012598-.0001063.00012992-.00011024.00012598-.00011024.00012598-.00011417.00012598-.00044095.00050394-.00011417.00012598-.00007087.00007874-.00005118.00005512-.00079134.00085827-.00011811.00012598-.00003543.00003937-.00007874.00007874-.00011811.00012598-.00011811.00011811-.00047638.00048819-.00011811.00012205-.00012205.00011811-.00012205.00012205-.00011811.00012205-.00012598.00012205-.00011811.00011811-.00003937.00003543-.00008268.00008268-.00012598.00012205-.00012205.00011811-.00012205.00011811-.0000748.00007087-.00004724.00004724-.00012598.00011417-.00012205.00011811-.00012205.00011811-.00012992.00011811-.00012205.00011417-.00012205.00011417-.00012992.00011417-.00014961.0001378-.00022441.00020472-.00012598.00011024-.00012992.00011417-.00006299.00005512-.00006299.00005906-.00012598.00011024-.00012992.00011024-.00012598.00011417-.00012992.0001063-.00012598.00011024-.00012992.00011024-.00012598.00011024-.00014173.00011811-.00011811.00009843-.00012598.0001063-.00012992.0001063-.00013386.0001063-.00005118.00004331-.00007874.00006693-.00048425.00038583-.00003937.00003543-.00012992.00010236-.0003937.00031102-.00013386.00010236-.00012992.00010236-.0001378.00010236-.00012992.00009843-.00003937.00002756-.00049606.00037402-.00008268.00005906-.00005118.00003937-.00013386.00009843-.0001378.00009843-.00026772.00019291-.00040551.00029134-.00016535.00011024-.0001063.00007874-.0001378.00009449-.00027559.00018898c-.115543.114272-.245358.214138-.386488.296673-.00195669.00149213-.0040315.00288189-.00622047.00414173-.00216929.00126378-.00438976.0023622-.00665354.00330709-.283429.162846-.611717.256063-.961402.256063-.349602 0-.677819-.0932008-.961209-.256-.00232283-.00095669-.00461024-.00207874-.00685433-.00337008-.00228346-.0013189-.00444094-.00277165-.00647244-.00433858-.140913-.0824488-.270539-.182181-.385937-.29628l-.00014173-.00009449-.00008268-.00005512-.00005906-.00003937-.00014173-.00009843-.0001378-.00009843-.00014567-.00009843-.00010236-.00007087-.00003937-.00002756-.0001378-.00009843-.00014173-.00009843-.0001378-.00009843-.00014173-.00009843-.0001378-.00010236-.0001378-.00009843-.00014173-.00010236-.00014961-.00011024-.00012992-.00009449-.0001378-.00010236-.0001378-.00010236-.0001378-.00010236-.0000315-.00002756-.0001063-.00007874-.0001378-.00010236-.0001378-.0001063-.00013386-.0001063-.00005512-.00004331-.00008268-.00006299-.0001378-.0001063-.00013386-.0001063-.0001378-.0001063-.0000748-.00006299-.00006299-.00004724-.00026772-.00021654-.0001378-.00011024-.00009449-.00007874-.00003937-.0000315-.00013386-.00011024-.00013386-.00011024-.00013386-.00011024-.00013386-.00011417-.00013386-.00011024-.00012992-.00011417-.00013386-.00011417-.0001378-.00011811-.00012598-.0001063-.00013386-.00011811-.00012992-.00011417-.00015748-.0001378-.0001063-.00009449-.00012992-.00011811-.00013386-.00011417-.00012992-.00011811-.00004724-.00004331-.00008268-.0000748-.00012598-.00011811-.00012992-.00011811-.00012992-.00012205-.00006693-.00005906-.00006299-.00005906-.00012992-.00011811-.00012598-.00012205-.00012992-.00012205-.00008661-.00008268-.00003937-.00003937-.00012992-.00012205-.00012598-.00012205-.00012598-.00012598-.00012598-.00011811-.00012598-.00012992-.00012992-.00012205-.00012205-.00012205-.00012598-.00012992-.00012598-.00012205-.00012205-.00012598-.00061417-.00062992-.00011811-.00012598-.00005118-.00005118-.00007087-.0000748-.00012205-.00012992-.00047638-.00051181-.00011811-.00012992-.00011811-.00012992-.00009055-.00009843-.00002756-.0000315-.00011417-.00012992-.00011417-.00012992-.0005748-.00065354-.00012992-.00015354-.00009843-.0001063-.00066535-.00079921-.00011024-.00013386-.00006299-.00007087-.00004724-.00005906-.0001063-.0001378-.00011024-.00013386-.0001063-.00013386-.0001063-.0001378-.0001063-.00013386-.0001063-.00013386-.0001063-.00013386-.0001063-.0001378-.00010236-.0001378-.0001063-.00013386-.00010236-.0001378-.0001063-.0001378-.00020472-.00027165-.00010236-.0001378-.00010236-.0001378-.0000315-.00004331-.00007087-.00009449-.00009843-.0001378-.00009843-.0001378-.00010236-.00014173-.00009843-.0001378-.00009843-.00014173-.00009843-.0001378-.00019685-.00027559-.00009843-.00014173-.00009449-.00014173-.00009843-.00014173-.00009449-.0001378-.00009449-.00014173c-.114079-.11537-.213795-.244957-.296236-.385831-.00162598-.00207087-.00312205-.00427953-.00447638-.00662205-.00133071-.00230709-.00247638-.00467323-.00345276-.0070748-.16272-.283339-.25587-.611484-.25587-.961012.00000394-.349512.0931496-.67765.255854-.960984.00098032-.00240945.00213386-.00477953.0034685-.00709449.00135827-.00235433.0028622-.00457087.00448819-.00664961.0824488-.140886.182165-.270484.296256-.385858l.00009449-.00014173.00009449-.00014173.00057874-.00083071.00009843-.0001378.00060236-.00082677.00010236-.00013386.00010236-.0001378.00010236-.0001378.0001063-.0001378.00009843-.00013386.0001063-.00013386.00020866-.00027165.0001063-.00013386.0001063-.00013386.0001063-.0001378.0001063-.00013386.0001063-.00013386.0001063-.00013386.00011024-.00012992.00002756-.00003937.00007874-.00009843.00011024-.00012992.00011024-.00013386.00011024-.00012992.00022047-.00026772.00011024-.00012992.00011417-.00012992.00007874-.00009449.0000315-.00003937.00011417-.00012598.00068504-.00078347.00013386-.00014567.00010236-.00011024.00070866-.00076772.00011811-.00012598.00006693-.0000748.00005118-.00005118.00098032-.00100394.00012205-.00012205.00012598-.00012205.00177165-.0016811.00012992-.00011811.00012992-.00011417.00077953-.00068504.00013386-.00011417.00003543-.00003543.00009055-.00007874.00013386-.00011024.00066142-.00055512.00012992-.0001063.00009843-.00008268.00003543-.00002756.00013386-.00011024.00013386-.0001063.00013386-.0001063.00013386-.0001063.00013386-.0001063.00013386-.0001063.0001378-.0001063.00026772-.00020866.0001378-.0001063.00013386-.00010236.0001378-.00010236.0001378-.00010236.00013386-.00010236.0001378-.00010236.00027165-.00020079.0001378-.00010236.0001378-.00010236.0001378-.00009843.0001378-.00009843.00014173-.00009843.0001378-.00009843.0001378-.00009843.00027953-.00019291.0001378-.00009449.0001378-.00009843.00014173-.00009449.00014173-.00009449c.115449-.114169.245142-.213957.386138-.296441.00199606-.00153937.00412205-.00296457.00636614-.00425591.00218898-.00125984.0044252-.0023622.00669685-.00330709.283417-.162854.611693-.256091.961362-.256091.34976 0 .67811.0932638.961579.256169.00219685.0009252.0043622.002.00648031.00322835.00216535.00124409.0042126.00261417.00614961.00408661.141201.082563.271075.182484.386665.296819l.0001378.00009449.00013386.00009449.00013386.00009055.00013386.00009449.00013386.00009449.00013386.00009449.00013386.00009843.00013386.00009449.00013386.00009449.00012992.00009449.00013386.00009843.00008268.00005906.00005118.00003937.00012992.00009843.00013386.00009843.0003937.00029528.00012992.00009843.00013386.00010236.00012992.00010236.00004724.0000315.00008268.00007087.00012992.00009843.00012992.00010236.00012992.00010236.00025984.00020866.00012598.00010236.00012992.00010236.00014173.00011417.00011811.00009449.00012598.0001063.00012992.00011024.00050787.0004252.00012598.0001063.00012992.00011024.00012598.0001063.00075197.00066535.00012598.00011024.00006693.00005906.00005512.00005512.00012205.00011417.00074016.00068504.00012598.00011417.0000315.0000315.00008661.00008268.0009685.00094488.00012205.00012205.00011811.00012205.00047244.00048425.00011811.00011811.00011811.00012205.00008268.00008661.0000315.00003937.00011417.00011811.00011811.00012598.00011417.00012205.00034252.00037008.00011417.00012205.00011417.00012598.00005118.00005512.00006299.00007087.00011024.00012205.00011024.00012598.00022047.00025197.00011417.00012598.00022047.00025197.00012598.00014567.00009055.0001063.0001063.00012598.00011024.00012992.0001063.00012598.0002126.00025591.0001063.00012598.0001063.00012992.0001063.00012992.00010236.00012992.0001063.00012992.00010236.00012598.0001063.00012992.00009843.00012992.0001063.00012992.00009843.00012992.00030709.0003937.00009843.00012992.00010236.00012992.00009843.00013386.00009843.00012992.00009843.00013386.00009843.00013386.00019685.00026378.00009449.00012992.00009843.0001378.00009843.00012992.00009449.00013386.00009449.00013386.00009449.00013386.00009449.00013386.00018898.00026772.00009055.0001378.00009449.00013386c.11435.115591.21428.245469.296854.386673.00147244.00193307.00283465.00397638.00408268.00613386.00122441.00211811.00229528.00427953.00322047.00648031.162929.283476.256201.611835.256201.961598z"/></g></g></svg>