<svg id="Layer_1" enable-background="new 0 0 512 512" height="512" viewBox="0 0 512 512" width="512" xmlns="http://www.w3.org/2000/svg"><g><path d="m329.851 453.239c33.196-34.473 53.615-81.336 53.615-132.973 0-105.891-85.842-191.733-191.733-191.733s-191.733 85.842-191.733 191.734 85.842 191.733 191.733 191.733c17.714 0 34.861-2.413 51.145-6.91z" fill="#5abeff"/><path d="m191.733 512c17.714 0 34.861-2.413 51.145-6.91l86.973-51.851c33.196-34.473 53.615-81.336 53.615-132.973 0-52.946-21.461-100.879-56.158-135.576l-271.151 271.152c34.697 34.697 82.631 56.158 135.576 56.158z" fill="#469be6"/><path d="m371.163 231.708-90.873-90.869c-5.858-5.857-5.853-15.361 0-21.213 31.16-31.161 81.245-30.804 112.067.017 30.791 30.791 31.209 80.875.019 112.064-5.858 5.859-15.356 5.857-21.213.001z" fill="#e1ebf0"/><path d="m392.376 231.707c31.189-31.189 30.772-81.273-.019-112.064l-66.63 66.63 45.437 45.434c5.856 5.857 15.354 5.859 21.212 0z" fill="#cddce6"/><g fill="#469be6"><path d="m336.333 62.133c-8.284 0-15-6.716-15-15v-32.133c0-8.284 6.716-15 15-15s15 6.716 15 15v32.133c0 8.284-6.716 15-15 15z"/><path d="m497 190.667h-32.134c-8.284 0-15-6.716-15-15s6.716-15 15-15h32.134c8.284 0 15 6.716 15 15s-6.716 15-15 15z"/><path d="m427.223 99.78c-3.838 0-7.677-1.464-10.605-4.393-5.858-5.857-5.859-15.354-.002-21.213l22.718-22.722c5.856-5.858 15.354-5.859 21.213-.002 5.858 5.857 5.859 15.354.002 21.213l-22.719 22.722c-2.929 2.93-6.768 4.395-10.607 4.395z"/></g><path d="m329.851 453.239-95.378-95.379c-5.859-5.859-15.361-5.852-21.213 0l-48.2 48.2c-5.859 5.859-5.852 15.361 0 21.213l77.818 77.817c33.591-9.275 63.482-27.456 86.973-51.851z" fill="#1e323c"/><path d="m132.93 427.278-48.203-48.207c-14.738-14.73-14.756-38.596.003-53.345l96.396-96.399c5.858-5.858 15.361-5.853 21.213 0l80.333 80.333c5.858 5.858 5.858 15.355 0 21.213l-96.399 96.402c-14.698 14.69-38.626 14.713-53.343.003z" fill="#ff7038"/><path d="m186.273 427.275 96.399-96.402c5.858-5.858 5.858-15.355 0-21.213l-40.167-40.167-133.68 133.68 24.103 24.105c14.719 14.71 38.647 14.687 53.345-.003z" fill="#ff405c"/><path d="m459.406 277.527-224.933-224.933c-3.944-3.946-9.755-5.374-15.079-3.711-5.325 1.664-9.288 6.146-10.285 11.635l-31.296 172.122 101.546 101.547 172.124-31.296c5.489-.998 9.971-4.96 11.634-10.285 1.664-5.326.235-11.134-3.711-15.079z" fill="#f5fafa"/><path d="m451.483 302.891c5.489-.998 9.971-4.96 11.634-10.285 1.664-5.326.234-11.134-3.711-15.079l-112.467-112.467-118.353 118.353 50.773 50.774z" fill="#e1ebf0"/></g></svg>