<svg id="Capa_1" enable-background="new 0 0 464.374 464.374" height="512" viewBox="0 0 464.374 464.374" width="512" xmlns="http://www.w3.org/2000/svg"><g><g id="search_1_"><path d="m261.284 406.263c-112.163 0-203.09-90.926-203.09-203.09s90.926-203.089 203.09-203.089 203.09 90.926 203.09 203.09-90.927 203.089-203.09 203.089zm0-348.153c-80.117 0-145.064 64.947-145.064 145.064s64.947 145.064 145.064 145.064 145.064-64.947 145.064-145.064-64.948-145.064-145.064-145.064z"/><path d="m29.181 464.289c-7.712.045-15.124-2.983-20.599-8.414-11.377-11.284-11.452-29.653-.168-41.03.056-.056.112-.112.168-.168l109.088-109.088c11.777-11.377 30.547-11.052 41.924.725s11.052 30.547-.725 41.924l-109.089 107.637c-5.475 5.431-12.887 8.459-20.599 8.414z"/></g></g></svg>