<svg height="512" viewBox="0 0 60 59" width="512" xmlns="http://www.w3.org/2000/svg"><g id="Page-1" fill="none" fill-rule="evenodd"><g id="009---Shower-with-Curtain" fill-rule="nonzero"><path id="Shape" d="m17.84 52c-1.6656788 1.1809873-2.6976776 3.0606993-2.8 5.1-.0511593.5090925-.4783498.8974475-.99.9h-7.05c-.55228475 0-1-.4477153-1-1v-1c.0032948-1.1032019.89679813-1.9967052 2-2h2v-3.6z" fill="#f3d55b"/><path id="Shape" d="m50 50.4v3.6h2c1.1032019.0032948 1.9967052.8967981 2 2v1c0 .5522847-.4477153 1-1 1h-7.05c-.5116502-.0025525-.9388407-.3909075-.99-.9-.1023224-2.0393007-1.1343212-3.9190127-2.8-5.1z" fill="#f3d55b"/><path id="Shape" d="m19.85 10.68-2.09-2.09c-.3750976-.37907934-.8867115-.59165132-1.42-.59h-5.34c-1.10320187.0032948-1.9967052.89679813-2 2v17h-4v-17c0-3.3137085 2.6862915-6 6-6h5.34c1.5953063-.00671027 3.1265075.62738714 4.25 1.76l3.24 3.25z" fill="#bdc3c7"/><path id="Shape" d="m38 10c-.5522847 0-1-.44771525-1-1v-5c0-.55228475.4477153-1 1-1s1 .44771525 1 1v5c0 .55228475-.4477153 1-1 1z" fill="#95a5a5"/><path id="Shape" d="m44 10c-.5522847 0-1-.44771525-1-1v-5c0-.55228475.4477153-1 1-1s1 .44771525 1 1v5c0 .55228475-.4477153 1-1 1z" fill="#95a5a5"/><path id="Shape" d="m50 10c-.5522847 0-1-.44771525-1-1v-5c0-.55228475.4477153-1 1-1s1 .44771525 1 1v5c0 .55228475-.4477153 1-1 1z" fill="#95a5a5"/><path id="Shape" d="m56 10c-.5522847 0-1-.44771525-1-1v-5c0-.55228475.4477153-1 1-1s1 .44771525 1 1v5c0 .55228475-.4477153 1-1 1z" fill="#95a5a5"/><path id="Shape" d="m54.4 46c-1.0620554 1.8220512-2.5779488 3.3379446-4.4 4.4-1.8236083 1.0538392-3.8937974 1.6058896-6 1.6h-28c-3.1840629.0047869-6.23909195-1.257958-8.49056699-3.509433s-3.51421988-5.3065041-3.50943301-8.490567l-.00001356-10h11.39001356c2.3993256.0012685 4.7177538.8675724 6.53 2.44 2.8222909 2.3607065 6.4011306 3.6246618 10.08 3.56h3v9c0 .5522847.4477153 1 1 1z" fill="#3b97d3"/><path id="Shape" d="m35 31v5h-3c-3.6788694.0646618-7.2577091-1.1992935-10.08-3.56-1.8122462-1.5724276-4.1306744-2.4387315-6.53-2.44h-13.39c-.55228475 0-1-.4477153-1-1v-1c0-1.6568542 1.34314575-3 3-3h11c3.6785918-.0629535 7.2568523 1.2007972 10.08 3.56 1.8122462 1.5724276 4.1306744 2.4387315 6.53 2.44z" fill="#ecf0f1"/><path id="Shape" d="m59 59h-58c-.55228475 0-1-.4477153-1-1s.44771525-1 1-1h58c.5522847 0 1 .4477153 1 1s-.4477153 1-1 1z" fill="#46b29d"/><rect id="Rectangle-path" fill="#9fc9d3" height="37" rx="1" width="24" x="35" y="9"/><g fill="#84b5cb"><path id="Shape" d="m54 9v5c0 .5522847-.4477153 1-1 1s-1-.4477153-1-1v-5z"/><path id="Shape" d="m42 9v25c0 .5522847-.4477153 1-1 1s-1-.4477153-1-1v-25z"/><path id="Shape" d="m42 41v5h-2v-5c0-.5522847.4477153-1 1-1s1 .4477153 1 1z"/><path id="Shape" d="m54 21v25h-2v-25c0-.5522847.4477153-1 1-1s1 .4477153 1 1z"/><path id="Rectangle-path" d="m46 9h2v37h-2z"/></g><rect id="Rectangle-path" fill="#ecf0f1" height="4" rx="1" width="58" x="1"/><path id="Shape" d="m29.99 15.07c-.0307904.5236573-.465442.9319663-.99.93h-10c-.5522847 0-1-.4477153-1-1 .0098573-3.2422115 2.5892433-5.8923868 5.83-5.99.0562326-.00861077.1131457-.0119586.17-.01.264056.0020268.5277955.01871918.79.05 2.9767988.45684505 5.180809 3.0084106 5.2 6.02z" fill="#95a5a5"/><path id="Shape" d="m30 15v.21c.0016524-.0468895-.0016999-.0938214-.01-.14.0082028-.0223745.0116098-.0462237.01-.07z" fill="#f3d55b"/><path id="Shape" d="m16 49c-4.9682782-.0055111-8.99448887-4.0317218-9-9 0-.5522847.44771525-1 1-1s1 .4477153 1 1c.00440864 3.8641657 3.1358343 6.9955914 7 7 .5522847 0 1 .4477153 1 1s-.4477153 1-1 1z" fill="#fff"/></g></g></svg>