<?xml version="1.0" encoding="iso-8859-1"?>
<!-- Generator: Adobe Illustrator 21.0.0, SVG Export Plug-In . SVG Version: 6.00 Build 0)  -->
<svg xmlns="http://www.w3.org/2000/svg" xmlns:xlink="http://www.w3.org/1999/xlink" version="1.1" id="Capa_1" x="0px" y="0px" viewBox="0 0 512.09 512.09" style="enable-background:new 0 0 512.09 512.09;" xml:space="preserve" width="512" height="512">
<g>
	<g>
		<g>
			<rect x="111.045" y="101" style="fill:#DFEEFA;" width="160.006" height="309.999"/>
			<path style="fill:#A19D8D;" d="M271.045,240.999h-65V102.053c0-8.284-6.716-15-15-15c-8.284,0-15,6.716-15,15v138.946h-65     c-8.284,0-15,6.716-15,15c0,8.284,6.716,15,15,15h65v140c0,8.284,6.716,15,15,15c8.284,0,15-6.716,15-15v-140h65     c8.284,0,15-6.716,15-15C286.045,247.715,279.329,240.999,271.045,240.999z"/>
			<path style="fill:#A19D8D;" d="M271.051,425.999H111.045c-8.284,0-15-6.716-15-15V100.999c0-8.284,6.716-15,15-15h160.006     c8.284,0,15,6.716,15,15v309.999C286.051,419.283,279.335,425.999,271.051,425.999z M126.045,395.999h130.006V115.999H126.045     V395.999z"/>
		</g>
	</g>
	<g>
		<g>
			<g>
				<g>
					<g>
						<g>
							<path style="fill:#FFC12E;" d="M468.635,512.09c-20.254,0-31.216-6.626-40.026-11.951c-7.73-4.673-13.315-8.049-26.147-8.049         s-18.417,3.376-26.147,8.048c-8.809,5.325-19.772,11.952-40.026,11.952c-20.253,0-31.215-6.627-40.024-11.952         c-7.73-4.672-13.314-8.048-26.146-8.048c-7.77,0-14.069-6.716-14.069-15L256.045,31.67l226.659-0.012V497.09         C482.704,505.374,476.405,512.09,468.635,512.09z"/>
						</g>
					</g>
					<path style="fill:#F7A520;" d="M369.375,504.154c2.511-1.34,4.791-2.716,6.941-4.016c7.73-4.672,13.314-8.048,26.147-8.048       s18.418,3.376,26.147,8.049c8.81,5.325,19.772,11.951,40.026,11.951c7.77,0,14.069-6.716,14.069-15V31.658l-113.33,0.006       V504.154z"/>
				</g>
				<g>
					<path style="fill:#FFC12E;" d="M415.045,193.691c-8.284,0-15,6.716-15,15v283.443c0.778-0.028,1.58-0.044,2.417-0.044       c12.833,0,18.418,3.376,26.148,8.049c0.471,0.285,0.951,0.574,1.435,0.865V208.691       C430.045,200.407,423.329,193.691,415.045,193.691z"/>
					<g>
						<path style="fill:#F7A520;" d="M301.054,394.946c-8.284,0-15,6.716-15,15v84.781c3.556,1.398,6.66,3.264,10.211,5.411        c5.295,3.201,11.386,6.863,19.789,9.282v-99.475C316.054,401.662,309.338,394.946,301.054,394.946z"/>
						<g>
							<path style="fill:#F7A520;" d="M301.054,364.946c-8.284,0-15-6.716-15-15v-27.639c0-8.284,6.716-15,15-15         c8.284,0,15,6.716,15,15v27.639C316.054,358.23,309.338,364.946,301.054,364.946z"/>
						</g>
					</g>
				</g>
			</g>
			<g>
				<path style="fill:#A85A16;" d="M497.045,0c-8.284,0-15,6.716-15,15v1.658h-452V15c0-8.284-6.716-15-15-15s-15,6.716-15,15      v33.321c0,8.284,6.716,15,15,15s15-6.716,15-15v-1.663h452v1.663c0,8.284,6.716,15,15,15c8.284,0,15-6.716,15-15V15      C512.045,6.716,505.329,0,497.045,0z"/>
				<path style="fill:#8F4300;" d="M497.045,0c-8.284,0-15,6.716-15,15v1.658h-226v30h226v1.663c0,8.284,6.716,15,15,15      c8.284,0,15-6.716,15-15V15C512.045,6.716,505.329,0,497.045,0z"/>
			</g>
		</g>
	</g>
</g>















</svg>
