<svg id="Capa_1" enable-background="new 0 0 512 512" height="512" viewBox="0 0 512 512" width="512" xmlns="http://www.w3.org/2000/svg"><g><path d="m106.333 512h-19.366c-7.435 0-12.639-7.348-10.172-14.361l33.503-95.233 31.015-12.959 37.414 12.959-63.169 104.394c-1.952 3.228-5.451 5.2-9.225 5.2z" fill="#756e78"/><path d="m405.667 512h19.366c7.435 0 12.639-7.348 10.172-14.361l-33.503-95.233-35.798-9.109-32.631 9.109 63.169 104.394c1.952 3.228 5.451 5.2 9.225 5.2z" fill="#756e78"/><path d="m155.62 402.405-50.516 83.484c-1.953 3.228-5.452 5.201-9.226 5.201h-16.779l-2.304 6.549c-2.467 7.013 2.737 14.361 10.172 14.361h19.367c3.773 0 7.272-1.972 9.226-5.201l63.169-104.394-9.722-6.877z" fill="#544f57"/><path d="m435.205 497.638-33.503-95.233-12.941-9.109-11.068 9.109 26.147 74.323c2.467 7.014-2.737 14.362-10.172 14.362h-6.732l9.506 15.71c1.953 3.228 5.452 5.201 9.226 5.201h19.367c7.433-.001 12.637-7.349 10.17-14.363z" fill="#544f57"/><path d="m123.112 0h265.828c21.782 0 39.44 17.658 39.44 39.44v99.797l36.803 123.268h-418.313l36.803-123.268v-99.797c0-21.782 17.657-39.44 39.439-39.44z" fill="#e28086"/><path d="m388.94 0h-6.997c2.946 5.524 4.616 11.832 4.616 18.529v152.608c0 22.7-18.402 41.102-41.102 41.102h-274.932l13.148 50.266h362.477l-17.771-123.268v-99.797c0-21.782-17.657-39.44-39.439-39.44z" fill="#dd636e"/><path d="m428.327 139.237v114.64c0 16.212-13.143 29.355-29.355 29.355h-285.944c-16.213 0-29.355-13.143-29.355-29.355v-114.64c0-11.707-9.49-21.197-21.197-21.197h-36.282c-11.707 0-21.197 9.49-21.197 21.197v157.867c0 58.156 47.145 105.301 105.301 105.301h291.404c58.156 0 105.301-47.145 105.301-105.301v-157.867c0-11.707-9.49-21.197-21.197-21.197h-36.282c-11.707 0-21.197 9.49-21.197 21.197z" fill="#e28086"/><path d="m41.852 118.326v157.954c0 16.213 13.143 29.355 29.355 29.355h13.699c-.802-2.675-1.233-5.509-1.233-8.445v-157.953c0-11.707-9.49-21.197-21.197-21.197h-20.626c.001.095.002.191.002.286z" fill="#dd636e"/><path d="m485.806 118.04h-20.626c.001.095.002.191.002.287v157.867c0 58.156-47.145 105.301-105.301 105.301h-291.404c-8.603 0-16.965-1.032-24.969-2.978 18.174 14.927 41.436 23.889 66.79 23.889h291.404c58.156 0 105.301-47.145 105.301-105.301v-157.868c0-11.707-9.49-21.197-21.197-21.197z" fill="#dd636e"/><path d="m399.024 233.149h-285.996c-16.213 0-29.355 13.143-29.355 29.355v34.68c0 16.216 13.145 29.361 29.361 29.361h285.984c16.216 0 29.361-13.145 29.361-29.361v-34.68c0-16.212-13.142-29.355-29.355-29.355z" fill="#eab1b7"/><path d="m399.024 233.149h-13.699c.802 2.675 1.233 5.509 1.233 8.445v34.68c0 16.216-13.145 29.361-29.361 29.361h-272.289c3.629 12.096 14.848 20.91 28.126 20.91h285.984c16.216 0 29.361-13.145 29.361-29.361v-34.68c0-16.212-13.142-29.355-29.355-29.355z" fill="#e4989d"/><g fill="#eab1b7"><circle cx="169.005" cy="75.663" r="18.138"/><circle cx="256.026" cy="75.663" r="18.138"/><circle cx="343.047" cy="75.663" r="18.138"/><circle cx="169.005" cy="163.493" r="18.138"/><circle cx="256.026" cy="163.493" r="18.138"/><circle cx="343.047" cy="163.493" r="18.138"/></g><path d="m428.458 305.026h-344.864c-4.331 0-7.841-3.51-7.841-7.841s3.511-7.841 7.841-7.841h344.865c4.331 0 7.841 3.51 7.841 7.841s-3.511 7.841-7.842 7.841z" fill="#f6d3d5"/></g></svg>