<svg id="Capa_1" enable-background="new 0 0 512 512" height="512" viewBox="0 0 512 512" width="512" xmlns="http://www.w3.org/2000/svg"><g><path d="m70.766 481.513h-19.497c-2.024 0-3.702-1.566-3.842-3.585l-3.138-45.318 16.728-8.478 16.728 8.478-3.138 45.318c-.139 2.019-1.818 3.585-3.841 3.585z" fill="#c6865c"/><path d="m337.369 481.513h19.497c2.024 0 3.702-1.566 3.842-3.585l3.138-45.318-16.728-8.478-16.728 8.478 3.138 45.318c.139 2.019 1.817 3.585 3.841 3.585z" fill="#c6865c"/><path d="m372.485 266.661h-7.992c-9.833 0-17.804 7.971-17.804 17.804l-9.599 40.631h-266.046l-9.599-40.631c0-9.833-7.971-17.804-17.804-17.804h-7.992c-19.688 0-35.649 15.961-35.649 35.649v87.577c0 23.595 19.127 42.722 42.722 42.722h322.69c23.595 0 42.722-19.127 42.722-42.722v-87.577c0-19.688-15.96-35.649-35.649-35.649z" fill="#dd636e"/><path d="m309.592 203.81h-211.05c-20.488 0-37.097 16.609-37.097 37.097v99.31l285.244-15.121v-84.189c0-20.488-16.609-37.097-37.097-37.097z" fill="#da4a54"/><path d="m204.067 126.96 106.023 23.431v-111.251c0-4.779-3.874-8.653-8.653-8.653h-194.74c-4.779 0-8.653 3.874-8.653 8.653v111.251z" fill="#90d8f9"/><path d="m445.814 217.072h27.212v230.105h-27.212z" fill="#b9c1cb"/><path d="m459.421 132.8c-4.268 0-7.726-3.459-7.726-7.726v-16.03c0-4.267 3.459-7.726 7.726-7.726s7.726 3.459 7.726 7.726v16.03c0 4.266-3.459 7.726-7.726 7.726z" fill="#b9c1cb"/><path d="m346.689 395.383h-285.244c-11.616 0-21.032-9.416-21.032-21.032v-28.223c0-11.616 9.416-21.032 21.032-21.032h285.244c11.616 0 21.032 9.416 21.032 21.032v28.223c0 11.616-9.416 21.032-21.032 21.032z" fill="#e4989d"/><path d="m346.689 325.096h-20.18c.003.142.005.285.005.428v28.223c0 11.616-9.416 21.032-21.032 21.032h-265.064c.228 11.418 9.555 20.604 21.027 20.604h285.244c11.616 0 21.032-9.416 21.032-21.032v-28.223c0-11.615-9.416-21.032-21.032-21.032z" fill="#e28086"/><g fill="#ffd064"><path d="m138.443 325.097h-39.886c-4.299 0-7.784-3.485-7.784-7.784v-39.886c0-4.299 3.485-7.784 7.784-7.784h39.886c4.299 0 7.784 3.485 7.784 7.784v39.886c0 4.299-3.485 7.784-7.784 7.784z"/><path d="m224.01 325.097h-39.886c-4.299 0-7.784-3.485-7.784-7.784v-39.886c0-4.299 3.485-7.784 7.784-7.784h39.886c4.299 0 7.784 3.485 7.784 7.784v39.886c0 4.299-3.485 7.784-7.784 7.784z"/><path d="m309.577 325.097h-39.886c-4.299 0-7.784-3.485-7.784-7.784v-39.886c0-4.299 3.485-7.784 7.784-7.784h39.886c4.299 0 7.784 3.485 7.784 7.784v39.886c0 4.299-3.485 7.784-7.784 7.784z"/></g><path d="m473.026 441.661h-27.212c-14.301 0-27.212 8.562-32.777 21.736l-5.967 14.126c-.8 1.894.59 3.99 2.646 3.99h99.408c2.056 0 3.446-2.097 2.646-3.99l-5.967-14.126c-5.565-13.174-18.476-21.736-32.777-21.736z" fill="#f6f9f9"/><path d="m492.938 128.119c-.348-1.77-1.9-3.046-3.703-3.046h-59.63c-1.804 0-3.355 1.276-3.703 3.046l-13.414 68.185 46.932 13.142 46.932-13.142z" fill="#f6f9f9"/><path d="m249.327 89.629c-2.189-2.189-5.739-2.189-7.929 0l-37.332 37.332-2.825 23.431 34.909 8.653h65.286c4.779 0 8.653-3.874 8.653-8.653z" fill="#66b394"/><circle cx="204.067" cy="70.415" fill="#ffd064" r="14.173"/><path d="m506.352 196.304h-93.864l-4.285 21.781c-.459 2.332 1.327 4.503 3.703 4.503h95.027c2.377 0 4.162-2.171 3.703-4.503z" fill="#ffd064"/><path d="m166.736 89.629c-2.189-2.189-5.739-2.189-7.929 0l-60.763 60.763c0 4.779 3.874 8.653 8.653 8.653h129.454z" fill="#78c2a4"/></g></svg>