<svg id="svg6" clip-rule="evenodd" fill-rule="evenodd" height="512" stroke-linejoin="round" stroke-miterlimit="2" viewBox="0 0 24 24" width="512" xmlns="http://www.w3.org/2000/svg" xmlns:svg="http://www.w3.org/2000/svg"><path id="path2" d="m11 5h-5c-.552 0-1-.448-1-1s.448-1 1-1h12c.552 0 1 .448 1 1s-.448 1-1 1h-3c.437.581.75 1.261.9 2h2.1c.552 0 1 .448 1 1s-.448 1-1 1h-2.1c-.463 2.282-2.481 4-4.9 4h-.586l6.293 6.293c.39.39.39 1.024 0 1.414s-1.024.39-1.414 0l-8-8c-.286-.286-.372-.716-.217-1.09.155-.373.52-.617.924-.617h3c1.306 0 2.418-.835 2.829-2h-7.829c-.552 0-1-.448-1-1s.448-1 1-1h7.829c-.411-1.165-1.523-2-2.829-2z"/></svg>