<?xml version="1.0" encoding="UTF-8"?>
<svg xmlns="http://www.w3.org/2000/svg" xmlns:xlink="http://www.w3.org/1999/xlink" xmlns:svgjs="http://svgjs.com/svgjs" version="1.1" width="512" height="512" x="0" y="0" viewBox="0 0 512 512" style="enable-background:new 0 0 512 512" xml:space="preserve" class="">
  <g>
    <g xmlns="http://www.w3.org/2000/svg" id="planetary_mixer" data-name="planetary mixer">
      <rect fill="#90caf9" height="48" rx="8" width="64" x="360" y="408" data-original="#90caf9" class=""/>
      <path d="m443.739 285.973c-7.57-28.9-24.249-48.777-43.739-53.086v-38.4a8 8 0 1 0 -16 0v38.4c-19.49 4.309-36.169 24.186-43.739 53.086a8 8 0 1 0 15.478 4.054c5.409-20.647 16.207-35.72 28.261-40.45v38.423a8 8 0 0 0 16 0v-38.423c12.054 4.73 22.852 19.8 28.261 40.45a8 8 0 1 0 15.478-4.054z" fill="#64b5f6" data-original="#64b5f6" class=""/>
      <path d="m440 136h-96a8 8 0 0 0 -8 8v24a34.53 34.53 0 0 0 34.49 34.491h43.02a34.53 34.53 0 0 0 34.49-34.491v-24a8 8 0 0 0 -8-8z" fill="#ea8816" data-original="#e91e63" class=""/>
      <path d="m512 80v69.72a10.29 10.29 0 0 1 -10.28 10.28h-304.3l-19.24 48.09a50.758 50.758 0 0 1 -96.9-8.89l-7.89-39.47a80 80 0 0 1 6.61-159.73h352a80.05 80.05 0 0 1 69.26 40 79.679 79.679 0 0 1 10.35 32q.39 3.945.39 8z" fill="#38456c" data-original="#f50057" class=""/>
      <path d="m267.6 444.521-37.79-78.259a251.761 251.761 0 0 1 -22.795-75.871l-10.41-77.22a78.518 78.518 0 0 0 -21.681-48.906c-12.782-13.065-29.448-20.265-46.924-20.265s-34.144 7.2-46.927 20.268a78.514 78.514 0 0 0 -21.673 48.768l-39.46 234.864a8 8 0 1 0 15.78 2.651l.23-1.369 215.589-1.13 1.657 3.432a8 8 0 1 0 14.408-6.958z" fill="#ea8816" data-original="#e91e63" class=""/>
      <path d="m485.925 456.059c-14.505-10.059-32.406-16.059-47.887-16.059h-402.038a36 36 0 0 0 0 72h468a8 8 0 0 0 8-8v-6.038c0-15.362-9.261-30.245-26.075-41.903z" fill="#38456c" data-original="#f50057" class=""/>
      <path d="m488 280h-192a8 8 0 0 0 -8 8v60.17a75.916 75.916 0 0 0 75.83 75.83h56.34a75.916 75.916 0 0 0 75.83-75.83v-60.17a8 8 0 0 0 -8-8z" fill="#90caf9" data-original="#90caf9" class=""/>
      <g fill="#e0f7fa">
        <path d="m136 328.805v-16.805a8 8 0 0 0 -16 0v16.805a40 40 0 1 0 16 0z" fill="#e0f7fa" data-original="#e0f7fa" class=""/>
        <path d="m416 104a8 8 0 0 0 0 16h96v-16z" fill="#e0f7fa" data-original="#e0f7fa" class=""/>
        <path d="m511.61 72h-95.61a8 8 0 0 0 0 16h96v-8q0-4.05-.39-8z" fill="#e0f7fa" data-original="#e0f7fa" class=""/>
        <path d="m501.26 40h-85.26a8 8 0 0 0 0 16h87.83a7.987 7.987 0 0 0 4.12-1.14 78.94 78.94 0 0 0 -6.69-14.86z" fill="#e0f7fa" data-original="#e0f7fa" class=""/>
      </g>
    </g>
  </g>
</svg>
