<?xml version="1.0" encoding="UTF-8"?>
<svg xmlns="http://www.w3.org/2000/svg" xmlns:xlink="http://www.w3.org/1999/xlink" xmlns:svgjs="http://svgjs.com/svgjs" version="1.1" width="512" height="512" x="0" y="0" viewBox="0 0 512 512" style="enable-background:new 0 0 512 512" xml:space="preserve" class="">
  <g>
    <g xmlns="http://www.w3.org/2000/svg">
      <path d="m428.202 213.053c-4.27 0-7.731-3.461-7.731-7.731 0-11.797-6.156-16.082-17.037-22.639-13.485-8.126-31.953-19.256-23.295-55.526.992-4.153 5.164-6.715 9.315-5.725 4.153.991 6.717 5.162 5.725 9.315-6.033 25.272 3.308 30.901 16.236 38.692 10.923 6.583 24.519 14.776 24.519 35.883-.001 4.27-3.463 7.731-7.732 7.731z" fill="#da4a54" data-original="#da4a54"/>
      <path d="m458.274 219.08c-1.344 0-2.705-.35-3.945-1.088-3.67-2.182-4.875-6.927-2.692-10.597 8.41-14.14.68-33.693-6.797-52.602-7.601-19.227-15.462-39.109-7.073-55.648 5.429-10.703 16.696-18.158 34.446-22.793 4.134-1.077 8.355 1.397 9.434 5.527 1.079 4.131-1.396 8.355-5.527 9.434-13.035 3.404-21.298 8.392-24.563 14.827-5.241 10.332 1.027 26.185 7.663 42.968 8.436 21.339 17.998 45.524 5.706 66.192-1.445 2.431-4.015 3.78-6.652 3.78z" fill="#698ed5" data-original="#698ed5"/>
      <path d="m311.468 512c-89.713 0-162.699-72.987-162.699-162.699v-72.485h61.851v72.485c0 55.608 45.24 100.848 100.848 100.848s100.848-45.24 100.848-100.848v-143.98h61.851v143.98c0 89.712-72.987 162.699-162.699 162.699z" fill="#756e78" data-original="#756e78" class=""/>
      <g fill="#665e66">
        <path d="m335.574 450.149c55.608 0 100.848-45.24 100.848-100.848v-143.98h-24.107v143.98c0 51.529-38.849 94.149-88.795 100.125 3.955.473 7.976.723 12.054.723z" fill="#665e66" data-original="#665e66" class=""/>
        <path d="m172.876 349.301v-72.485h-24.107v72.485c0 89.712 72.987 162.699 162.699 162.699 4.054 0 8.073-.154 12.053-.447-84.105-6.189-150.645-76.594-150.645-162.252z" fill="#665e66" data-original="#665e66" class=""/>
      </g>
      <path d="m294.994 197.551v91.248c0 37.167-30.125 67.291-67.291 67.291h-96.017c-37.166 0-67.29-30.124-67.29-67.291v-91.248l115.299-34.298z" fill="#38456c" data-original="#f1f4f6" class=""/>
      <path d="m167.552 356.097h-35.881c-37.147 0-67.272-30.124-67.272-67.291v-91.248l115.299-34.298 17.941 5.329-97.359 28.969v91.248c0 37.167 30.125 67.291 67.272 67.291z" fill="#38456c" data-original="#e7ecf1" class=""/>
      <path d="m276.606 24.812v122.763h-49.636v-122.763c0-13.699 11.103-24.812 24.813-24.812s24.823 11.113 24.823 24.812z" fill="#f6e266" data-original="#f6e266" class=""/>
      <path d="m261.618 2.033c-8.812 3.801-14.997 12.575-14.997 22.784v122.764h-19.654v-122.764c0-13.711 11.122-24.814 24.815-24.814 3.501-.001 6.817.725 9.836 2.03z" fill="#ffd064" data-original="#ffd064" class=""/>
      <path d="m132.422 24.812v122.763h-49.636v-122.763c0-13.699 11.113-24.812 24.823-24.812 13.7 0 24.813 11.113 24.813 24.812z" fill="#f6e266" data-original="#f6e266" class=""/>
      <g fill="#ffd064">
        <path d="m117.439 2.033c-8.812 3.801-14.997 12.575-14.997 22.784v122.764h-19.655v-122.764c0-13.711 11.122-24.814 24.815-24.814 3.502-.001 6.819.725 9.837 2.03z" fill="#ffd064" data-original="#ffd064" class=""/>
        <path d="m82.786 112.187h49.635v35.389h-49.635z" fill="#ffd064" data-original="#ffd064" class=""/>
        <path d="m226.97 112.187h49.635v35.389h-49.635z" fill="#ffd064" data-original="#ffd064" class=""/>
      </g>
      <path d="m294.994 197.551v31.354h-230.598v-31.354l115.299-34.297z" fill="#38456c" data-original="#e7ecf1" class=""/>
      <path d="m329.289 163.249c0-18.943-15.357-34.3-34.3-34.3h-230.589c-18.943 0-34.3 15.357-34.3 34.3 0 18.943 15.357 34.3 34.3 34.3h230.589c18.943 0 34.3-15.356 34.3-34.3z" fill="#38456c" data-original="#f1f4f6" class=""/>
      <path d="m119.97 187.505c6.222 6.204 14.792 10.042 24.256 10.042h-79.829c-9.483 0-18.052-3.838-24.256-10.042s-10.041-14.792-10.041-24.256c0-18.946 15.351-34.298 34.298-34.298h79.828c-18.928 0-34.298 15.351-34.298 34.298 0 9.464 3.838 18.052 10.042 24.256z" fill="#38456c" data-original="#e7ecf1" class=""/>
      <path d="m213.505 274.389h-16.954c-3.563 0-6.451-2.888-6.451-6.451v-44.149c0-6.231-7.959-8.842-11.649-3.82l-32.448 44.149c-3.131 4.26-.089 10.272 5.198 10.272h16.954c3.563 0 6.451 2.888 6.451 6.451v44.148c0 6.231 7.959 8.842 11.649 3.821l32.448-44.148c3.131-4.262.089-10.273-5.198-10.273z" fill="#ea8816" data-original="#e49542" class=""/>
    </g>
  </g>
</svg>
