<?xml version="1.0" encoding="UTF-8"?>
<svg xmlns="http://www.w3.org/2000/svg" xmlns:xlink="http://www.w3.org/1999/xlink" xmlns:svgjs="http://svgjs.com/svgjs" version="1.1" width="512" height="512" x="0" y="0" viewBox="0 0 512 512" style="enable-background:new 0 0 512 512" xml:space="preserve" class="">
  <g>
    <path xmlns="http://www.w3.org/2000/svg" d="m96.988281 349.757812 77.089844-37.671874-13.117187-26.964844-63.972657 31.261718zm0 0" fill="#ea8816" data-original="#1d7ba6" class=""/>
    <path xmlns="http://www.w3.org/2000/svg" d="m421.335938 418.257812-17.324219-12.929687v-62.078125h17.496093c34.027344 0 61.707032-27.683594 61.707032-61.710938v-18.296874l26.503906-29.964844-43.246094-71.84375-6.207031-48.566406-200.210937 3.800781-7.917969 395.277343h238.472656l-10.128906-21.402343c-13.464844-28.457031-33.917969-53.453125-59.144531-72.285157zm0 0" fill="#fce4e4" data-original="#fce4e4" class=""/>
    <path xmlns="http://www.w3.org/2000/svg" d="m480.480469 490.542969c-13.464844-28.457031-33.917969-53.453125-59.144531-72.285157l-17.324219-12.929687v-62.078125h17.496093c34.027344 0 61.707032-27.683594 61.707032-61.710938v-18.296874l26.503906-29.964844-43.246094-71.84375-6.207031-48.566406-152.640625 2.898437v396.179687h182.984375zm0 0" fill="#fbced3" data-original="#fbced3" class=""/>
    <path xmlns="http://www.w3.org/2000/svg" d="m344.558594 0h-19.132813c-96.765625 0-175.492187 78.726562-175.492187 175.5l.121094 211.285156c.027343 30.554688-11.1875 54.378906-33.332032 70.820313-20.996094 15.585937-51.003906 24.027343-86.773437 24.414062l.160156 29.980469h213.042969c45.558594-.175781 82.625-37.785156 82.625-83.839844v-297.644531l148.78125-.519531c0-71.792969-58.203125-129.996094-130-129.996094zm0 0" fill="#38456c" data-original="#766e6e" class=""/>
    <path xmlns="http://www.w3.org/2000/svg" d="m257.269531 232.796875v186.3125c0 34.28125-27.566406 62.230469-61.695312 62.878906 20.0625-19.402343 32.558593-46.585937 32.558593-76.632812v-139.707031h-29.984374v139.707031c0 42.273437-34.390626 76.664062-76.660157 76.664062h-91.539062v29.980469h164.410156c51.222656 0 92.890625-41.671875 92.890625-92.890625v-186.3125zm0 0" fill="#38456c" data-original="#5b5555" class=""/>
    <path xmlns="http://www.w3.org/2000/svg" d="m344.558594 0h-19.132813c-6.007812 0-11.949219.304688-17.800781.898438v479.480468c11.34375-14.347656 18.152344-32.503906 18.152344-52.21875v-297.644531l148.78125-.519531c0-71.792969-58.203125-129.996094-130-129.996094zm0 0" fill="#38456c" data-original="#5b5555" class=""/>
    <path xmlns="http://www.w3.org/2000/svg" d="m221.628906 374.511719-121.902344-59.542969c2.671876-2.953125 4.9375-6.304688 6.710938-9.996094 4.828125-10.042968 5.460938-21.367187 1.785156-31.890625-3.671875-10.523437-11.214844-18.980469-21.234375-23.816406l-27.261719-13.160156c-20.683593-9.984375-45.617187-1.238281-55.582031 19.496093-9.960937 20.734376-1.234375 45.726563 19.449219 55.710938l27.199219 13.125 15.3125 7.480469c-5.152344.34375-10.320313 1.648437-15.25 4.027343l-27.261719 13.15625c-10.019531 4.835938-17.5625 13.296876-21.234375 23.816407-3.675781 10.523437-3.039063 21.851562 1.785156 31.894531 7.164063 14.914062 22.074219 23.625 37.582031 23.625 6.050782 0 12.195313-1.328125 18-4.128906l27.257813-13.160156c20.6875-9.984376 29.414063-34.972657 19.453125-55.707032-.898438-1.871094-1.925781-3.640625-3.054688-5.3125l105.128907 51.351563zm-141.65625 2.910156c-1.03125 2.960937-3.152344 5.339844-5.972656 6.699219l-27.257812 13.15625c-5.816407 2.808594-12.828126.347656-15.628907-5.480469-1.355469-2.824219-1.535156-6.011719-.503906-8.96875 1.035156-2.960937 3.15625-5.335937 5.972656-6.695313l27.261719-13.160156c1.632812-.785156 3.359375-1.160156 5.0625-1.160156 4.359375 0 8.550781 2.449219 10.566406 6.644531 1.355469 2.824219 1.535156 6.007813.5 8.964844zm-48.859375-108.804687c2.800781-5.828126 9.8125-8.289063 15.628907-5.480469l27.261718 13.15625c2.816406 1.359375 4.9375 3.738281 5.96875 6.699219 1.035156 2.957031.855469 6.144531-.5 8.96875-1.355468 2.820312-3.730468 4.945312-6.683594 5.984374-2.949218 1.035157-6.125.855469-8.945312-.503906l-27.261719-13.160156c-5.816406-2.804688-8.269531-9.832031-5.46875-15.664062zm0 0" fill="#ea8816" data-original="#24aac6" class=""/>
  </g>
</svg>
