<svg id="Glyph" enable-background="new 0 0 128 128" height="512" viewBox="0 0 128 128" width="512" xmlns="http://www.w3.org/2000/svg"><g><path d="m62.351 24.057c1.914-.795 3.941-1.48 6.014-1.998.889-1.998 2.628-8.861.952-11.803-.488-.857-1.219-1.256-2.3-1.256-.003 0-.007 0-.01 0-2.652.006-4.443 1.593-5.351 4.682.024.03.05.057.073.088 1.94 2.62 1.268 7.425.622 10.287z"/><path d="m70.649 21.567c2.147-.399 4.306-.613 6.393-.558.121.003.233.019.353.023 1.904-3.633 3.717-9.934 1.903-13.039-.784-1.341-2.198-1.993-4.324-1.993-1.948 0-3.384.859-4.382 2.604.167.204.324.421.462.663 1.841 3.232.61 9.175-.405 12.3z"/><path d="m79.53 21.219c4.224.562 7.663 2.265 10.225 5.112.453.503.862 1.088 1.25 1.707-.075-2.324-.053-4.292.01-5.114.071-.932.409-2.199.799-3.667 1.133-4.257 2.846-10.691-.591-14.596-.833-.948-3.079-1.792-5.391-1.558-1.557.156-3.673.867-5.275 3.197.169.214.325.442.467.686 2.382 4.073.085 10.862-1.494 14.233z"/><path d="m53.965 28.837c1.654-1.313 3.724-2.595 6.057-3.733 1.078-3.758 1.511-8.236.099-10.144-.484-.655-1.157-.96-2.116-.96-1.32 0-5.272.021-5.891 8.077.14.125.289.238.415.385 1.326 1.535 1.581 4.008 1.436 6.375z"/><path d="m108.117 96.447c-2.302-4.604-4.105-12.707-4.105-18.447 0-24.598-7.226-33.533-10.2-36.167-.666 4.396-2.672 9.009-5.981 13.741-.174.249-.451.405-.753.425-.298.018-.598-.098-.803-.322-.975-1.062-2.348-3.605-4.249-7.124-1.846-3.417-4.143-7.67-6.862-12.015-2.142-3.158-2.394-3.455-4.194-3.531-.108-.005-.212-.007-.314-.007-1.098 0-1.907.262-2.465.798-.782.75-1.179 2.167-1.179 4.209 0 5.554 5.702 12.274 5.759 12.342 5.185 6.222 4.156 17.319 3.474 21.801-.838 5.507.613 11.337 3.785 15.217 3.772 4.611 5.807 9.032 5.892 9.218.021.049.04.098.054.149l7.749 28.09 25.815-5.531z"/><path d="m44.321 42.015c1.458-3.832 3.889-7.483 7.401-11.115.543-3.378.294-5.972-.706-7.131-.465-.539-1.12-.792-1.987-.769-1.006.024-1.835.439-2.535 1.271-2.519 2.99-2.817 10.608-2.209 17.746.012-.001.024-.002.036-.002z"/><path d="m75.022 93.147c-.638-4.298-.778-8.581-.422-12.736-.63-2.763-.768-5.704-.333-8.561.642-4.215 1.631-14.622-3.024-20.209-.246-.286-6.232-7.335-6.232-13.633 0-2.646.587-4.495 1.795-5.653 1.011-.969 2.44-1.422 4.247-1.346 2.858.121 3.596 1.208 5.786 4.438 2.773 4.429 5.087 8.713 6.946 12.155 1.29 2.389 2.382 4.41 3.191 5.667 3.041-4.64 4.732-9.11 5.032-13.305-.005-5.102-1.402-9.696-3.74-12.294-2.668-2.965-6.463-4.533-11.279-4.661-2.528-.072-5.127.272-7.651.873-.033.01-.066.018-.1.024-6.661 1.606-12.769 5.052-15.52 7.802-3.878 3.876-6.345 7.569-7.763 11.623-.472 1.349-.825 2.729-1.096 4.15-.005.025-.009.049-.016.074-.838 4.45-.837 9.336-.832 15.144v1.216c.103.59.218.89.292 1.033 1.242-.614 4.417-5.721 7.77-11.115.66-1.061 1.356-2.182 2.091-3.356 2.21-3.26 2.947-4.348 5.806-4.469 1.803-.071 3.236.377 4.247 1.346 1.208 1.158 1.795 3.007 1.795 5.653 0 6.298-5.986 13.347-6.241 13.644-4.754 5.705-5.759 12.423-5.769 12.49-1.242 6.213-4.979 11.23-7.838 14.309 1.471 12.479 3.244 21.857 4.756 25.129 1.514 3.276 4.645 5.496 8.815 6.25 5.055.913 10.509-.51 13.574-3.541 5.309-5.253 3.825-14.674 2.254-24.648-.185-1.164-.368-2.331-.541-3.493z"/><path d="m58.243 65.359c.066-.077 5.768-6.798 5.768-12.352 0-2.043-.396-3.459-1.179-4.209-.611-.586-1.522-.844-2.779-.792-1.8.076-2.052.374-4.214 3.562-.714 1.142-1.409 2.261-2.068 3.32-5.905 9.498-7.867 12.477-9.916 12.077-1.413-.28-1.716-2.112-1.831-2.802-.009-.054-.014-.109-.014-.164v-1.3c-.005-5.888.007-10.845.865-15.442-.115-.79-.26-1.871-.399-3.154-13.608 1.132-19.465 11.755-19.465 34.897 0 6.793-1.045 12.327-3.105 16.447l-11.453 22.906 23.879 6.429 8.721-29.068c.06-.199.18-.374.344-.502.087-.067 8.733-6.902 10.634-16.407.033-.243 1.089-7.298 6.212-13.446z"/></g></svg>