<svg id="Capa_1" enable-background="new 0 0 512 512" height="512" viewBox="0 0 512 512" width="512" xmlns="http://www.w3.org/2000/svg"><g><path d="m104.985 331.015c-.307.337-29.985 33.969-29.985 74.985 0 34.014 20.171 65.156 30 74.956l.044.044c19.649-21.984 29.956-48.541 29.956-75 0-41.016-29.678-74.648-30-75z"/><path d="m60 256c0 24.038 4.666 46.901 12.539 68.251 5.438-7.896 9.781-12.911 10.283-13.466l21.167-23.188 22.207 22.207c.308.297 23.465 25.842 33.79 62.571 15.588-7.178 32.5-11.375 50.014-11.375h30v30c0 36.876-20.815 68.392-49.704 90h200.704v-45.366c31.787-13.96 121-63.223 121-179.634v-15h-452z"/><path d="m62.3 471.4c-9.52-18.161-17.3-41.078-17.3-65.4 0-.91.194-1.738.214-2.64-13.637-7.949-29.148-12.36-45.214-12.36 0 35.343 28.209 65.684 62.3 80.4z"/><path d="m210 391c-16.069 0-31.582 4.409-45.222 12.363.022.899.222 1.731.222 2.637 0 22.665-6.385 44.971-17.437 65.466 34.155-14.691 62.437-45.075 62.437-80.466z"/><path d="m473.705 100.58c4.775-7.309 7.295-15.82 7.295-24.58 0-24.814-20.186-45-45-45-13.535 0-26.235 6.006-34.819 16.494l-134.993 163.506h135.335z"/></g></svg>