<svg id="Layer_1" enable-background="new 0 0 50 50" height="512" viewBox="0 0 50 50" width="512" xmlns="http://www.w3.org/2000/svg"><g><path d="m40.9818 8.8174-.4859 7.8232h-12.2347l-.4859-7.8232c-.0453-.7285.5334-1.3442 1.2633-1.3442h10.6799c.7299 0 1.3086.6157 1.2633 1.3442z" fill="#676767"/><path d="m39.0026 5.3017-.3937 2.1715h-8.4608l-.3939-2.1715z" fill="#d25c59"/><path d="m43.7988 3.2164c0 1.0318-.7984 1.8998-1.828 1.9672-5.0528.3306-10.132.3306-15.1845 0-1.0296-.0674-1.828-.9354-1.828-1.9672 0-1.0318.7984-1.8998 1.828-1.9672 5.0526-.3306 10.1318-.3306 15.1845 0 1.0296.0674 1.828.9354 1.828 1.9672z" fill="#cdcccc"/><path d="m46.2268 20.3461-.6643 26.3152c-.0123.8489-.6028 1.5993-1.4394 1.7469-4.429.7874-15.0706.7874-19.4873 0-.8366-.1476-1.4271-.8981-1.4517-1.7469l-.652-26.3152c-.3076-6.5572 11.8473-6.631 11.8473-6.631s12.155.0738 11.8474 6.631z" fill="#eeeded"/><path d="m24.7032 29.3124.9278 16.7631c2.001.2877 5.2634.4625 8.7439.4625 3.4727 0 6.7322-.1742 8.7409-.4607l1.2284-16.7649c-6.2024 1.5681-13.8329 1.6199-19.641 0z" fill="#9ccc65"/><g><path d="m25.666 40.19c.9719 1.7962 1.5378 3.8507 1.5378 5.9668 0 .9596-.0984 1.8946-.3322 2.8419-3.2413-.7655-6.1396-2.7839-7.972-5.9913-1.6609 2.9157-4.4781 5.1548-8.0213 5.979-.7259-3.1126-.1846-6.2497 1.2426-8.8209-3.0388-.0616-6.016-1.2549-8.3535-3.5431 2.4728-2.5221 5.7577-3.7523 9.0178-3.7031-2.1271-3.0891-2.6713-6.8302-1.9069-9.9282 3.3586.7874 6.0651 2.8419 7.7383 5.5485.0984.1353.1599.2952.2584.4429 1.6608-2.9157 4.4781-5.1548 8.0213-5.979.874 3.7873-.1924 7.696-1.9561 9.9404 2.8779-.3023 6.7034.8521 9.436 3.5431-2.399 2.4236-5.573 3.6538-8.7102 3.703z" fill="#ee7373"/></g><g><path d="m21.8555 37.7665c.406.7504.6398 1.6239.6398 2.5097 0 .406-.0369.7997-.1353 1.2056-1.5613-.3697-2.8269-1.472-3.3586-2.5343-.7012 1.2303-1.8946 2.1776-3.3832 2.5221-.3076-1.3164-.0738-2.6328.5291-3.7154-1.2918-.0246-2.5466-.529-3.5308-1.5009 1.0457-1.058 2.4359-1.5747 3.8014-1.5501-.5905-.8735-.935-1.907-.935-2.9896 0-.3936.0369-.7996.1353-1.2056 1.4053.33 2.5416 1.1537 3.371 2.5343.7013-1.2303 1.8822-2.1776 3.3832-2.522.3637 1.609-.0923 3.2679-.8243 4.1829.1396.0233 2.2217-.2301 3.9738 1.5009-1.009 1.0211-2.35 1.5378-3.6664 1.5624z" fill="#fccc67"/></g></g></svg>