<svg id="Capa_1" enable-background="new 0 0 512 512" height="512" viewBox="0 0 512 512" width="512" xmlns="http://www.w3.org/2000/svg"><g><g><path d="m271.109 512c20.503-45.547 15.622-92.881-16.026-131.996-1.117-1.38-2.253-2.737-3.408-4.072l-10.001 46.273 10.001 50.643c7.648 11.248 14.306 24.088 19.434 39.152z" fill="#ffd987"/><path d="m191.279 325.606c-22.575-15.885-51.75-30.789-65.885-55.772-6.366 22.621-6.975 45.894 1.286 69.093 12.129 34.062 36.682 54.068 64.282 75.138 21.207 16.19 43.48 33.43 60.715 58.782v-96.916c-17.326-20.028-38.773-35.109-60.398-50.325z" fill="#f9e89c"/></g><g><path d="m357.111 223.399c17.513-38.905 11.967-76.161-15.065-109.571-15.267-18.87-36.599-30.343-54.501-46.466-13.323-12-26.192-25.595-35.869-40.344l-10.002 50.982 10.001 52.826c29.01 25.434 72.562 44.509 105.436 92.573z" fill="#ffd987"/><path d="m238.507 0c-11.439 25.357-32.507 91 13.169 130.826v-103.808c-5.669-8.639-10.244-17.674-13.169-27.018z" fill="#f9e89c"/></g><g><path d="m345.659 238.194c-26.33-32.544-62.2-53.452-93.984-80.01l-10.001 76.248 10.001 66.091c46.599 35.899 94.574 76.811 119.796 150.973 33.189-73.597 25.329-150.095-25.812-213.302z" fill="#ffc036"/><path d="m242.626 150.35c-39.942-35.974-77.74-79.525-92.707-127.35-21.626 47.938-29.541 98.509-11.61 148.862 19.587 55.005 59.235 87.311 103.804 121.335 3.176 2.425 6.366 4.865 9.563 7.327v-142.339c-3.058-2.556-6.081-5.16-9.05-7.835z" fill="#ffd069"/></g></g></svg>