<svg id="Capa_1" enable-background="new 0 0 512 512" height="512" viewBox="0 0 512 512" width="512" xmlns="http://www.w3.org/2000/svg"><g><path d="m296.737 77.183h-81.473v-38.058c0-13.745 11.142-24.887 24.887-24.887h31.699c13.745 0 24.887 11.142 24.887 24.887z" fill="#c0c0c0"/><path d="m354.33 170.75h-196.66c-12.32 0-22.307 9.987-22.307 22.307v269.785c0 27.149 22.009 49.158 49.158 49.158h142.959c27.149 0 49.158-22.009 49.158-49.158v-269.785c-.001-12.32-9.988-22.307-22.308-22.307z" fill="#9be69d"/><path d="m354.33 170.75h-26.359c12.32 0 22.307 9.987 22.307 22.307v269.785c0 27.149-22.009 49.158-49.158 49.158h26.359c27.149 0 49.158-22.009 49.158-49.158v-269.785c0-12.32-9.987-22.307-22.307-22.307z" fill="#6fd7a3"/><path d="m304.084 0c-7.885 0-14.277 6.392-14.277 14.277v45.515c0 2.464-1.998 4.462-4.462 4.462h-58.69c-2.464 0-4.462-1.998-4.462-4.462v-45.515c0-7.885-6.392-14.277-14.277-14.277h-50.791c-7.885 0-14.277 6.392-14.277 14.277v135.718c0 11.462 9.292 20.755 20.755 20.755h184.795c11.463 0 20.755-9.292 20.755-20.755v-135.718c-.001-7.885-6.393-14.277-14.278-14.277z" fill="#fd8087"/><g><path d="m369.152 14.277c0-7.885-6.392-14.277-14.277-14.277h-25.178c7.885 0 14.277 6.392 14.277 14.277v135.718c0 11.463-9.292 20.755-20.755 20.755h25.178c11.463 0 20.755-9.292 20.755-20.755z" fill="#fe646f"/></g><g><path d="m259.402 46.462h-6.804c-4.267 0-7.726-3.459-7.726-7.726s3.459-7.726 7.726-7.726h6.804c4.268 0 7.726 3.459 7.726 7.726s-3.458 7.726-7.726 7.726z" fill="#424242"/></g><g><g><path d="m255.964 311.87c-4.267 0-7.726-3.459-7.726-7.726v-28.451c0-4.268 3.459-7.726 7.726-7.726 4.268 0 7.726 3.459 7.726 7.726v28.451c.001 4.267-3.458 7.726-7.726 7.726z" fill="#424242"/></g><g><g><path d="m219.511 413.324c-4.267 0-7.726-3.459-7.726-7.726v-20.098c0-1.952.738-3.831 2.067-5.26l28.835-31.025c2.906-3.127 7.793-3.304 10.92-.4 3.125 2.905 3.304 7.794.399 10.92l-26.768 28.802v17.061c0 4.268-3.46 7.726-7.727 7.726z" fill="#5a5a5a"/></g><g><path d="m292.418 413.324c-4.268 0-7.726-3.459-7.726-7.726v-17.061l-24.848-26.737c-2.905-3.125-2.727-8.014.399-10.919 3.126-2.903 8.013-2.724 10.918.4l26.915 28.96c1.329 1.429 2.067 3.308 2.067 5.26v20.098c.002 4.267-3.457 7.725-7.725 7.725z" fill="#5a5a5a"/></g></g><g><g><path d="m240.753 324.782c-1.551 0-3.116-.466-4.475-1.434l-21.248-15.133c-2.036-1.45-3.244-3.795-3.244-6.294v-10.691c0-4.268 3.459-7.726 7.726-7.726s7.726 3.459 7.726 7.726v6.709l18.004 12.822c3.476 2.476 4.287 7.3 1.811 10.776-1.507 2.116-3.885 3.244-6.3 3.245z" fill="#5a5a5a"/></g><g><path d="m271.176 324.782c-2.415 0-4.793-1.129-6.301-3.245-2.475-3.476-1.664-8.3 1.812-10.776l18.005-12.822v-6.709c0-4.268 3.459-7.726 7.726-7.726 4.268 0 7.726 3.459 7.726 7.726v10.692c0 2.499-1.209 4.844-3.244 6.294l-21.249 15.133c-1.36.967-2.925 1.433-4.475 1.433z" fill="#5a5a5a"/></g></g><g fill="#f9f7f8"><path d="m251.347 311.861s-62.582 10.71-58.302 39.006c3.715 24.559 46.229 12.383 65.732-23.837z"/><path d="m260.582 311.861s62.582 10.71 58.302 39.006c-3.715 24.559-46.229 12.383-65.732-23.837z"/></g><ellipse cx="255.964" cy="348.896" fill="#424242" rx="17.466" ry="33.275"/><circle cx="255.964" cy="307.289" fill="#5a5a5a" r="13.451"/></g><path d="m255.964 233.34c-59.168 0-107.304 48.137-107.304 107.305s48.136 107.304 107.304 107.304 107.304-48.136 107.304-107.304-48.136-107.305-107.304-107.305zm0 15.453c50.647 0 91.851 41.204 91.851 91.852 0 11.897-2.274 23.273-6.41 33.716l-170.205-69.087c13.88-33.139 46.646-56.481 84.764-56.481zm0 183.704c-50.647 0-91.852-41.204-91.852-91.851 0-7.088.808-13.992 2.335-20.623l168.053 68.213c-16.127 26.514-45.298 44.261-78.536 44.261z" fill="#fe646f"/><g><g><path d="m277.895 124.718h-43.79c-4.267 0-7.726-3.459-7.726-7.726s3.459-7.726 7.726-7.726h43.79c4.268 0 7.726 3.459 7.726 7.726s-3.458 7.726-7.726 7.726z" fill="#fe646f"/></g><g><path d="m277.895 147.628h-43.79c-4.267 0-7.726-3.459-7.726-7.726 0-4.268 3.459-7.726 7.726-7.726h43.79c4.268 0 7.726 3.459 7.726 7.726s-3.458 7.726-7.726 7.726z" fill="#fe646f"/></g></g><g><g><path d="m277.895 215.223h-43.79c-4.267 0-7.726-3.459-7.726-7.726s3.459-7.726 7.726-7.726h43.79c4.268 0 7.726 3.459 7.726 7.726s-3.458 7.726-7.726 7.726z" fill="#6fd7a3"/></g></g></g></svg>