<svg height="512" viewBox="0 0 58 58" width="512" xmlns="http://www.w3.org/2000/svg"><g id="Page-1" fill="none" fill-rule="evenodd"><g id="001---Clean-Water" fill-rule="nonzero"><path id="Shape" d="m48.06 26.84c-2.8421335-3.0849535-6.845401-4.8400091-11.04-4.84-.34 0-.68.01-1.02.04-7.5817084.5041082-13.5902401 6.5954394-13.9905425 14.1833366-.4003023 7.5878973 4.93396 14.2776219 12.4205425 15.5766634.8548875.1526996 1.7215821.2296648 2.59.23 5.9599939-.0033973 11.3540007-3.5308715 13.7464024-8.9896216 2.3924018-5.45875 1.3304256-11.8156824-2.7064024-16.2003784z" fill="#24ae5f"/><path id="Shape" d="m49.54 45.3 7.58 7.58c1.1014354 1.182039 1.0689355 3.0240389-.0735128 4.1664872s-2.9844482 1.1749482-4.1664872.0735128l-7.58-7.58z" fill="#285680"/><path id="Shape" d="m45.82 24.85c-6.78 1.54-18.35 5.82-22.9 17.36-1.6290652-4.4392573-1.073659-9.3863725 1.4992231-13.3538826s6.8631278-6.4926273 11.5807769-6.8161174c.34-.03.68-.04 1.02-.04 3.1606556-.0028701 6.2411128.994778 8.8 2.85z" fill="#4fba6f"/><path id="Shape" d="m33 44c-.2163702 0-.4269038-.0701779-.6-.2l-4-3c-.2858125-.2143594-.4355547-.5649147-.3928203-.9196152.0427344-.3547006.2714531-.6596589.6-.8.3285469-.1403412.7070078-.0947442.9928203.1196152l3.336 2.5 11.388-10.437c.4070339-.3733445 1.0396555-.3460339 1.413.061s.3460339 1.0396555-.061 1.413l-12 11c-.1844765.1691809-.4256926.2630268-.676.263z" fill="#fff"/><path id="Shape" d="m11.54 9.43c2.3649628-3.21643313 4.9476866-6.26692069 7.73-9.13.1864103-.19183364.4425137-.30007247.71-.30007247s.5235897.10823883.71.30007247c6.2292685 6.38447776 11.3978207 13.7237543 15.31 21.74-7.5758253.5121519-13.5757865 6.6015411-13.975808 14.184114-.4000215 7.5825728 4.9259222 14.2694644 12.405808 15.575886-3.9216931 4.1384575-9.4321639 6.3929066-15.13 6.19-11.37-.38-20.04-10.59-19.25-21.93.46-6.73 3.25-13.43 6.61-19.21z" fill="#2fa8cc"/><path id="Shape" d="m16 13c-.0034285.2748245-.1569059.52576-.4.654h-.01c-.021.021-.052.021-.084.032s-.052.021-.083.031c-2.114.94-4.761 3.05-5.881 7.84-.05149037.251816-.26941826.4351463-.52633142.4427726-.25691317.0076264-.48533193-.1624543-.55166858-.4107726-.00718165-.016719-.01059573-.0348136-.01-.053-.34728243-1.5972493-.99181449-3.1149527-1.9-4.474-.98932487-1.4716009-2.3765634-2.6316792-4-3.345l-.154-.063c-.24468213-.1263103-.39839076-.3786391-.39839076-.654s.15370863-.5276897.39839076-.654c.052-.021.115-.042.177-.063 2.114-.94 4.761-3.05 5.881-7.84.05430291-.25711953.28120871-.44110875.544-.44110875s.48969709.18398922.544.44110875c.36364801 1.72638368 1.0836715 3.35784651 2.114 4.79.9882277 1.3722769 2.338501 2.4428013 3.9 3.092.2666975.1188339.4389126.3830276.44.675z" fill="#f9eab0"/><path id="Shape" d="m17 54c-.0603571.0000451-.1205972-.0053096-.18-.016-11.62-2.113-12.806-14.774-12.82-14.901-.04611578-.5522847.36421525-1.0373842.9165-1.0835s1.03738422.3642153 1.0835.9165c.039.459 1.085 11.264 11.182 13.1.510085.0923366.8650455.5591501.8176918 1.0753578s-.4813206.9106498-.9996918.9086422z" fill="#fff"/><path id="Shape" d="m37.02 53.03c-.9274483-.0003181-1.8530523-.0826387-2.766-.246-7.9803325-1.3920992-13.6628632-8.5264084-13.2347114-16.6159283.4281517-8.08952 6.8320167-14.5841358 14.9147114-15.1260717.347-.031.716-.042 1.086-.042 8.8448403 0 16.015 7.1701597 16.015 16.015s-7.1701597 16.015-16.015 16.015zm0-30.03c-.31 0-.621.008-.931.036-7.0779923.4638739-12.6921598 6.145203-13.0718343 13.2282109-.3796745 7.0830078 4.5949886 13.331936 11.5828343 14.5497891.7983258.143642 1.6078545.2159273 2.419.216 7.7402708 0 14.015-6.2747292 14.015-14.015s-6.2747292-14.015-14.015-14.015z" fill="#ecf0f1"/></g></g></svg>