<?xml version="1.0" encoding="UTF-8"?>
<svg xmlns="http://www.w3.org/2000/svg" xmlns:xlink="http://www.w3.org/1999/xlink" xmlns:svgjs="http://svgjs.com/svgjs" version="1.1" width="512" height="512" x="0" y="0" viewBox="0 0 497 497" style="enable-background:new 0 0 512 512" xml:space="preserve" class="">
  <g>
    <g xmlns="http://www.w3.org/2000/svg">
      <g>
        <path d="m221.862 31.158h53.276v70.188h-53.276z" fill="#38456c" data-original="#0094e6" class=""/>
        <path d="m386.404 279.795c0-75.699-61.085-137.138-136.679-137.771-75.172-.63-137.575 61.588-139.049 136.703-1.188 60.542 11.284 124.51 19.865 185.776 2.611 18.64 18.578 32.497 37.411 32.497h161.111c18.919 0 34.893-13.987 37.443-32.722 8.309-61.038 19.898-123.922 19.898-184.483z" fill="#fff6db" data-original="#fff6db" class=""/>
        <path d="m249.725 142.024c-5.391-.045-10.713.244-15.955.826 68.973 7.573 122.634 65.996 122.634 136.945 0 60.56-11.588 123.444-19.898 184.483-2.55 18.735-18.524 32.722-37.443 32.722h30c18.919 0 34.893-13.987 37.443-32.722 8.309-61.038 19.898-123.922 19.898-184.483 0-75.698-61.085-137.138-136.679-137.771z" fill="#ffeebd" data-original="#ffeebd" class=""/>
        <path d="m293.23 156.811h-89.46c-9.655 0-17.482-7.827-17.482-17.482v-28.727c0-9.655 7.827-17.482 17.482-17.482h89.459c9.655 0 17.482 7.827 17.482 17.482v28.727c0 9.656-7.827 17.482-17.481 17.482z" fill="#38456c" data-original="#36b8ff" class=""/>
        <path d="m295.772 38.529h-128.703c0-11.635 8.488-21.533 19.993-23.315l96.428-14.931c14.308-2.215 27.221 8.845 27.221 23.315 0 8.246-6.688 14.931-14.939 14.931z" fill="#38456c" data-original="#36b8ff" class=""/>
        <g>
          <path d="m132.81 206.348c-13.531 21.073-21.616 45.923-22.135 72.379-1.188 60.542 11.284 124.51 19.865 185.776 2.611 18.64 18.578 32.497 37.411 32.497h161.111c18.919 0 34.893-13.987 37.443-32.722 8.309-61.038 19.898-123.922 19.898-184.483 0-27.002-7.777-52.186-21.208-73.447z" fill="#cff5ff" data-original="#cff5ff" class=""/>
        </g>
        <path d="m365.196 206.348h-30c13.431 21.261 21.208 46.445 21.208 73.447 0 60.56-11.588 123.445-19.898 184.483-2.55 18.735-18.525 32.722-37.443 32.722h30c18.918 0 34.893-13.987 37.443-32.722 8.309-61.038 19.898-123.922 19.898-184.483 0-27.002-7.777-52.186-21.208-73.447z" fill="#b8f0ff" data-original="#b8f0ff"/>
        
        <g>
          <path d="m147.5 269c9.652 0 9.668-15 0-15-9.652 0-9.668 15 0 15z" fill="#38456c" data-original="#88e0f7" class=""/>
        </g>
        <g>
          <path d="m195.5 242c9.652 0 9.668-15 0-15-9.652 0-9.668 15 0 15z" fill="#38456c" data-original="#88e0f7" class=""/>
        </g>
        <g>
          <path d="m346.5 246c9.652 0 9.668-15 0-15-9.652 0-9.668 15 0 15z" fill="#38456c" data-original="#88e0f7" class=""/>
        </g>
        <g>
          <path d="m280.5 475c9.652 0 9.668-15 0-15-9.652 0-9.668 15 0 15z" fill="#38456c" data-original="#88e0f7" class=""/>
        </g>
        <g>
          <path d="m332.5 442c9.652 0 9.668-15 0-15-9.652 0-9.668 15 0 15z" fill="#38456c" data-original="#88e0f7" class=""/>
        </g>
        <g>
          <path d="m175.321 457.063c9.652 0 9.668-15 0-15-9.652 0-9.668 15 0 15z" fill="#38456c" data-original="#88e0f7" class=""/>
        </g>
      </g>
      <g>
        <circle cx="248.5" cy="343" fill="#38456c" r="89.5" data-original="#36b8ff" class=""/>
        <path d="m248.5 253.5c-5.112 0-10.122.435-15 1.258 42.287 7.137 74.5 43.925 74.5 88.242s-32.213 81.105-74.5 88.242c4.878.823 9.888 1.258 15 1.258 49.429 0 89.5-40.071 89.5-89.5s-40.071-89.5-89.5-89.5z" fill="#38456c" data-original="#0aa5fa" class=""/>
        <path d="m294.816 326.969h-30.238v-30.151h-32.156v30.151h-30.238v32.062h30.238v30.151h32.156v-30.151h30.238z" fill="#fff6db" data-original="#fff6db" class=""/>
      </g>
    </g>
  </g>
</svg>
