<?xml version="1.0" encoding="UTF-8"?>
<svg xmlns="http://www.w3.org/2000/svg" xmlns:xlink="http://www.w3.org/1999/xlink" xmlns:svgjs="http://svgjs.com/svgjs" version="1.1" width="512" height="512" x="0" y="0" viewBox="0 0 512 512" style="enable-background:new 0 0 512 512" xml:space="preserve" class="">
  <g>
    <path xmlns="http://www.w3.org/2000/svg" d="m0 6.179688v499.640624c0 3.414063 2.765625 6.179688 6.179688 6.179688h280.074218c3.414063 0 6.183594-2.765625 6.183594-6.179688v-499.640624c0-3.414063-2.769531-6.179688-6.183594-6.179688h-280.074218c-3.414063 0-6.179688 2.765625-6.179688 6.179688zm0 0" fill="#38456c" data-original="#aa7d95" class=""/>
    <path xmlns="http://www.w3.org/2000/svg" d="m0 359.15625h292.4375v76.421875h-292.4375zm0 0" fill="#fed89b" data-original="#fed89b" class=""/>
    <path xmlns="http://www.w3.org/2000/svg" d="m267.710938 359.15625h24.726562v76.421875h-24.726562zm0 0" fill="#ea8816" data-original="#d69e5b" class=""/>
    <path xmlns="http://www.w3.org/2000/svg" d="m166.566406 396.703125h-40.695312c-4.140625 0-7.5-3.355469-7.5-7.5 0-4.140625 3.359375-7.5 7.5-7.5h40.695312c4.140625 0 7.5 3.359375 7.5 7.5 0 4.144531-3.359375 7.5-7.5 7.5zm0 0" fill="#38456c" data-original="#804c68" class=""/>
    <path xmlns="http://www.w3.org/2000/svg" d="m0 505.820312v-70.242187h292.4375v70.242187c0 3.414063-2.769531 6.179688-6.183594 6.179688h-280.074218c-3.414063 0-6.179688-2.765625-6.179688-6.179688zm0 0" fill="#fed89b" data-original="#fed89b" class=""/>
    <path xmlns="http://www.w3.org/2000/svg" d="m267.710938 505.820312c0 3.414063-2.765626 6.179688-6.179688 6.179688h24.722656c3.414063 0 6.183594-2.765625 6.183594-6.179688v-70.242187h-24.726562zm0 0" fill="#ea8816" data-original="#d69e5b" class=""/>
    <path xmlns="http://www.w3.org/2000/svg" d="m166.566406 473.125h-40.695312c-4.140625 0-7.5-3.355469-7.5-7.5 0-4.140625 3.359375-7.5 7.5-7.5h40.695312c4.140625 0 7.5 3.359375 7.5 7.5 0 4.144531-3.359375 7.5-7.5 7.5zm0 0" fill="#38456c" data-original="#804c68" class=""/>
    <path xmlns="http://www.w3.org/2000/svg" d="m292.4375 90.429688v-15h-120.097656c1.277344 3.199218 1.976562 6.679687 1.976562 10.332031 0 1.589843-.128906 3.148437-.386718 4.667969zm0 0" fill="#fed89b" data-original="#fed89b" class=""/>
    <path xmlns="http://www.w3.org/2000/svg" d="m194.265625 128.953125-40.546875-13.4375v-2.664063c11.867188-3.292968 20.601562-14.191406 20.601562-27.089843 0-15.496094-12.605468-28.101563-28.101562-28.101563s-28.105469 12.605469-28.105469 28.101563c0 4.144531 3.359375 7.5 7.5 7.5 4.144531 0 7.5-3.355469 7.5-7.5 0-7.222657 5.878907-13.101563 13.105469-13.101563s13.101562 5.875 13.101562 13.101563c0 7.226562-5.878906 13.105469-13.101562 13.105469-4.144531 0-7.5 3.355468-7.5 7.5v9.148437l-40.550781 13.4375c-3.929688 1.304687-6.0625 5.546875-4.757813 9.480469 1.300782 3.929687 5.546875 6.0625 9.476563 4.757812l43.332031-14.359375 43.328125 14.359375c.785156.261719 1.578125.382813 2.359375.382813 3.148438 0 6.078125-1.992188 7.121094-5.140625 1.300781-3.933594-.828125-8.175782-4.761719-9.480469zm0 0" fill="#ea8816" data-original="#3a4d7b" class=""/>
    <path xmlns="http://www.w3.org/2000/svg" d="m256.871094 170.148438-45.578125-44.867188c-1.941407-1.910156-4.507813-2.960938-7.230469-2.960938h-18.695312c-4.34375 0-8.25 2.777344-9.722657 6.90625-4.425781 12.40625-16.253906 20.742188-29.425781 20.742188-13.175781 0-25-8.335938-29.425781-20.742188-1.476563-4.128906-5.382813-6.90625-9.722657-6.90625h-18.699218c-2.722656 0-5.289063 1.050782-7.226563 2.960938l-45.582031 44.867188c-3.839844 3.777343-4.101562 9.945312-.601562 14.039062l19.636718 22.957031c3.617188 4.226563 10.058594 4.792969 14.359375 1.265625l13.242188-10.855468c1.207031 41.886718-.070313 75.945312-3.964844 106.367187-.335937 2.636719.476563 5.292969 2.230469 7.285156 1.75 1.988281 4.277344 3.128907 6.929687 3.128907h117.644531c2.652344 0 5.179688-1.140626 6.929688-3.128907 1.753906-1.992187 2.566406-4.648437 2.230469-7.285156-3.890625-30.425781-5.171875-64.480469-3.964844-106.367187l13.242187 10.855468c4.300782 3.53125 10.742188 2.960938 14.359376-1.265625v-.003906l19.636718-22.953125c3.503906-4.09375 3.238282-10.261719-.601562-14.039062zm0 0" fill="#f0f2dc" data-original="#f0f2dc" class=""/>
    <path xmlns="http://www.w3.org/2000/svg" d="m286.253906 0h-280.074218c-3.414063 0-6.179688 2.765625-6.179688 6.179688v32.453124h292.4375v-32.453124c0-3.414063-2.769531-6.179688-6.183594-6.179688zm0 0" fill="#fed89b" data-original="#fed89b" class=""/>
    <path xmlns="http://www.w3.org/2000/svg" d="m286.253906 0h-24.722656c3.414062 0 6.179688 2.765625 6.179688 6.179688v32.453124h24.726562v-32.453124c0-3.414063-2.769531-6.179688-6.183594-6.179688zm0 0" fill="#ea8816" data-original="#d69e5b" class=""/>
    <path xmlns="http://www.w3.org/2000/svg" d="m0 428.078125h292.4375v15h-292.4375zm0 0" fill="#ea8816" data-original="#d69e5b" class=""/>
    <path xmlns="http://www.w3.org/2000/svg" d="m154.269531 75.429688h-154.269531v15h158.457031c.5625-1.449219.859375-3.019532.859375-4.667969 0-4.191407-1.976562-7.933594-5.046875-10.332031zm0 0" fill="#fed89b" data-original="#fed89b" class=""/>
    <path xmlns="http://www.w3.org/2000/svg" d="m292.144531 52.5v-13.867188h-292.011719v13.867188" fill="#38456c" data-original="#804c68" class=""/>
  </g>
</svg>
