<?xml version="1.0" encoding="iso-8859-1"?>
<!-- Generator: Adobe Illustrator 18.1.1, SVG Export Plug-In . SVG Version: 6.00 Build 0)  -->
<svg version="1.1" id="Capa_1" xmlns="http://www.w3.org/2000/svg" xmlns:xlink="http://www.w3.org/1999/xlink" x="0px" y="0px"
	 viewBox="0 0 26 26" style="enable-background:new 0 0 26 26;" xml:space="preserve">
<g>
	<path style="fill:#030104;" d="M7,16.5C7,16.776,6.776,17,6.5,17H4.707l1.268,1.268c0.195,0.195,0.195,0.512,0,0.707
		c-0.098,0.098-0.226,0.146-0.354,0.146s-0.256-0.049-0.354-0.146L4,17.707V19.5C4,19.776,3.776,20,3.5,20S3,19.776,3,19.5v-1.793
		l-1.268,1.268c-0.098,0.098-0.226,0.146-0.354,0.146s-0.256-0.049-0.354-0.146c-0.195-0.195-0.195-0.512,0-0.707L2.293,17H0.5
		C0.224,17,0,16.776,0,16.5S0.224,16,0.5,16h1.793l-1.268-1.268c-0.195-0.195-0.195-0.512,0-0.707s0.512-0.195,0.707,0L3,15.293
		V13.5C3,13.224,3.224,13,3.5,13S4,13.224,4,13.5v1.793l1.268-1.268c0.195-0.195,0.512-0.195,0.707,0s0.195,0.512,0,0.707L4.707,16
		H6.5C6.776,16,7,16.224,7,16.5z M13.5,22h-1.793l1.268-1.268c0.195-0.195,0.195-0.512,0-0.707s-0.512-0.195-0.707,0L11,21.293V19.5
		c0-0.276-0.224-0.5-0.5-0.5S10,19.224,10,19.5v1.793l-1.268-1.268c-0.195-0.195-0.512-0.195-0.707,0s-0.195,0.512,0,0.707L9.293,22
		H7.5C7.224,22,7,22.224,7,22.5S7.224,23,7.5,23h1.793l-1.268,1.268c-0.195,0.195-0.195,0.512,0,0.707
		c0.098,0.098,0.226,0.146,0.354,0.146s0.256-0.049,0.354-0.146L10,23.707V25.5c0,0.276,0.224,0.5,0.5,0.5s0.5-0.224,0.5-0.5v-1.793
		l1.268,1.268c0.098,0.098,0.226,0.146,0.354,0.146s0.256-0.049,0.354-0.146c0.195-0.195,0.195-0.512,0-0.707L11.707,23H13.5
		c0.276,0,0.5-0.224,0.5-0.5S13.776,22,13.5,22z M21.5,20h-0.793l0.561-0.561c0.195-0.195,0.195-0.512,0-0.707s-0.512-0.195-0.707,0
		L20,19.293V18.5c0-0.276-0.224-0.5-0.5-0.5S19,18.224,19,18.5v0.792l-0.561-0.561c-0.195-0.195-0.512-0.195-0.707,0
		s-0.195,0.512,0,0.707L18.294,20H17.5c-0.276,0-0.5,0.224-0.5,0.5s0.224,0.5,0.5,0.5h0.793l-0.561,0.561
		c-0.195,0.195-0.195,0.512,0,0.707c0.098,0.098,0.226,0.146,0.354,0.146s0.256-0.049,0.354-0.146L19,21.707V22.5
		c0,0.276,0.224,0.5,0.5,0.5s0.5-0.224,0.5-0.5v-0.793l0.561,0.561c0.098,0.098,0.226,0.146,0.354,0.146s0.256-0.049,0.354-0.146
		c0.195-0.195,0.195-0.512,0-0.707L20.707,21H21.5c0.276,0,0.5-0.224,0.5-0.5S21.776,20,21.5,20z M5.5,9.018h1.751l-1.238,1.238
		c-0.202,0.202-0.202,0.53,0,0.731c0.101,0.101,0.233,0.152,0.366,0.152s0.265-0.051,0.366-0.152l1.238-1.238V11.5
		c0,0.286,0.232,0.518,0.518,0.518s0.518-0.232,0.518-0.518V9.749l1.238,1.238c0.101,0.101,0.233,0.152,0.366,0.152
		s0.265-0.051,0.366-0.152c0.202-0.202,0.202-0.53,0-0.731l-1.24-1.238H11.5c0.286,0,0.518-0.232,0.518-0.518
		S11.786,7.982,11.5,7.982H9.749l1.238-1.238c0.202-0.202,0.202-0.53,0-0.731c-0.201-0.202-0.53-0.202-0.731,0L9.018,7.251V5.5
		c0-0.286-0.232-0.518-0.518-0.518S7.982,5.214,7.982,5.5v1.751L6.745,6.013c-0.201-0.202-0.53-0.202-0.731,0
		c-0.202,0.202-0.202,0.53,0,0.731l1.238,1.238H5.5c-0.286,0-0.518,0.232-0.518,0.518S5.214,9.018,5.5,9.018z M25,5h-2.586
		l1.828-1.828c0.391-0.391,0.391-1.023,0-1.414s-1.023-0.391-1.414,0L21,3.586V1c0-0.552-0.447-1-1-1s-1,0.448-1,1v2.586
		l-1.828-1.828c-0.391-0.391-1.023-0.391-1.414,0s-0.391,1.023,0,1.414L17.586,5H15c-0.553,0-1,0.448-1,1s0.447,1,1,1h2.586
		l-1.828,1.828c-0.391,0.391-0.391,1.023,0,1.414c0.195,0.195,0.451,0.293,0.707,0.293s0.512-0.098,0.707-0.293L19,8.414V11
		c0,0.552,0.447,1,1,1s1-0.448,1-1V8.414l1.828,1.828c0.195,0.195,0.451,0.293,0.707,0.293s0.512-0.098,0.707-0.293
		c0.391-0.391,0.391-1.023,0-1.414L22.414,7H25c0.553,0,1-0.448,1-1S25.553,5,25,5z"/>
</g>
<g>
</g>
<g>
</g>
<g>
</g>
<g>
</g>
<g>
</g>
<g>
</g>
<g>
</g>
<g>
</g>
<g>
</g>
<g>
</g>
<g>
</g>
<g>
</g>
<g>
</g>
<g>
</g>
<g>
</g>
</svg>
