<?xml version="1.0" encoding="UTF-8"?>
<svg xmlns="http://www.w3.org/2000/svg" xmlns:xlink="http://www.w3.org/1999/xlink" xmlns:svgjs="http://svgjs.com/svgjs" version="1.1" width="512" height="512" x="0" y="0" viewBox="0 0 57 59" style="enable-background:new 0 0 512 512" xml:space="preserve" class="">
  <g>
    <g xmlns="http://www.w3.org/2000/svg" id="Page-1" fill="none" fill-rule="evenodd">
      <g id="005---Wiping-Surface" fill-rule="nonzero" transform="translate(-1 -1)">
        <path id="Shape" d="m43.5 60c-.2651948-.0000566-.5195073-.1054506-.707-.293l-12.25-12.25c-.3789722-.3923789-.3735524-1.0160848.0121814-1.4018186s1.0094397-.3911536 1.4018186-.0121814l12.25 12.25c.2859079.2859943.3714219.7160366.216678 1.0896546-.1547439.3736179-.5192821.6172591-.923678.6173454z" fill="#38456c" data-original="#84b5cb" class=""/>
        <path id="Shape" d="m46.75 52.25c-.2651948-.0000566-.5195073-.1054506-.707-.293l-10-10c-.3789722-.3923789-.3735524-1.0160848.0121814-1.4018186s1.0094397-.3911536 1.4018186-.0121814l10 10c.2859079.2859943.3714219.7160366.216678 1.0896546-.1547439.3736179-.5192821.6172591-.923678.6173454z" fill="#38456c" data-original="#84b5cb" class=""/>
        <path id="Shape" d="m46.25 41.75c-.2651948-.0000566-.5195073-.1054506-.707-.293l-4.5-4.5c-.3789722-.3923789-.3735524-1.0160848.0121814-1.4018186s1.0094397-.3911536 1.4018186-.0121814l4.5 4.5c.2859079.2859943.3714219.7160366.216678 1.0896546-.1547439.3736179-.5192821.6172591-.923678.6173454z" fill="#38456c" data-original="#84b5cb" class=""/>
        <path id="Shape" d="m55.25 40.75c-.2651948-.0000566-.5195073-.1054506-.707-.293l-8.5-8.5c-.3789722-.3923789-.3735524-1.0160848.0121814-1.4018186s1.0094397-.3911536 1.4018186-.0121814l8.5 8.5c.2859079.2859943.3714219.7160366.216678 1.0896546-.1547439.3736179-.5192821.6172591-.923678.6173454z" fill="#38456c" data-original="#84b5cb" class=""/>
        <path id="Shape" d="m25.03 44.12 3.01 3.01c.3751365.3755541.8841815.5865733 1.415.5865733s1.0398635-.2110192 1.415-.5865733l16.26-16.26c.3755541-.3751365.5865733-.8841815.5865733-1.415s-.2110192-1.0398635-.5865733-1.415l-6.35-6.35-9.99-9.99-10.11-10.11c-.3732815-.37902819-.8830212-.5924538-1.415-.5924538s-1.0417185.21342561-1.415.5924538l-16.26 16.26c-.37902819.3732815-.5924538.8830212-.5924538 1.415s.21342561 1.0417185.5924538 1.415l7.57 7.57z" fill="#f29c1f" data-original="#f29c1f" class=""/>
        <path id="Shape" d="m40.32 18.98c.4411881.4479945.6889477 1.0512355.69 1.68-.0022216.3558198-.0806481.7070345-.23 1.03-.1161815.2407034-.2716418.4603755-.46.65l-8.41 8.41v.01l.06.14c.7857516-.4044425 1.7317947-.3349373 2.45.18.0571197.0308294.110761.0677078.16.11.503363.4295278.8038506 1.0502214.8285526 1.7114765.0247021.6612551-.2286389 1.3026377-.6985526 1.7685235l-8.4 8.41c-.3990095.3793832-.8269712.7271021-1.28 1.04-.8762576.626508-1.8354626 1.127987-2.85 1.49-2.4328693.816725-4.5165125 2.434986-5.91 4.59-.2845151.4470853-.7563937.7410623-1.2831139.7993708-.5267203.0583085-1.0514726-.1253403-1.4268861-.4993708l-12.05-12.05c-.37366979-.375585-.55707273-.9002325-.49877885-1.4268205.05829388-.5265881.352008-.9984182.79877885-1.2831795l2.76-1.75c1.83601805-1.1749854 3.28884366-2.8606802 4.18-4.85.13-.3.27-.59.41-.89.7854378-1.7534024 1.8454086-3.3703643 3.14-4.79l11.11-11.11c.887608-.9229135 2.3334816-1.0140947 3.33-.21.5221753.4521388.8215396 1.1092799.82 1.8-.0010523.6287645-.2488119 1.2320055-.69 1.68l1.68-1.67 2.24-2.25c.0274479-.0294065.0575783-.0561891.09-.08l.09-.08c.8362687-.6855128 2.0316308-.7143663 2.9-.07.1023604.0649657.1963917.1422057.28.23.4506666.442468.7031548 1.0484398.7 1.68-.0005542.6308224-.252469 1.235418-.7 1.68l1.66-1.65 1.14-1.15c.0274479-.0294065.0575783-.0561891.09-.08l.09-.08c.8357865-.6836075 2.027797-.7164906 2.9-.08.10343.0714568.200461.1517583.29.24.4440509.446098.6923171 1.0505722.69 1.68.0000385.5949644-.2209165 1.1687347-.62 1.61l-.97.96-2.38 2.39.09-.08c.8357865-.6836075 2.027797-.7164906 2.9-.08.10343.0714568.200461.1517583.29.24z" fill="#fdd7ad" data-original="#fdd7ad" class=""/>
        <g fill="#f3d55b">
          <path id="Shape" d="m57 52c-.2651948-.0000566-.5195073-.1054506-.707-.293l-1.5-1.5c-.3789722-.3923789-.3735524-1.0160848.0121814-1.4018186s1.0094397-.3911536 1.4018186-.0121814l1.5 1.5c.2859079.2859943.3714219.7160366.216678 1.0896546-.1547439.3736179-.5192821.6172591-.923678.6173454z" fill="#38456c" data-original="#f3d55b" class=""/>
          <path id="Shape" d="m52.5 47.5c-.2651948-.0000566-.5195073-.1054506-.707-.293l-1.5-1.5c-.3789722-.3923789-.3735524-1.0160848.0121814-1.4018186s1.0094397-.3911536 1.4018186-.0121814l1.5 1.5c.2859079.2859943.3714219.7160366.216678 1.0896546-.1547439.3736179-.5192821.6172591-.923678.6173454z" fill="#38456c" data-original="#f3d55b" class=""/>
          <path id="Shape" d="m51 52c-.4043959-.0000863-.7689341-.2437275-.923678-.6173454-.1547439-.373618-.0692299-.8036603.216678-1.0896546l1.5-1.5c.3923789-.3789722 1.0160848-.3735524 1.4018186.0121814s.3911536 1.0094397.0121814 1.4018186l-1.5 1.5c-.1874927.1875494-.4418052.2929434-.707.293z" fill="#38456c" data-original="#f3d55b" class=""/>
          <path id="Shape" d="m55.5 47.5c-.4043959-.0000863-.7689341-.2437275-.923678-.6173454-.1547439-.373618-.0692299-.8036603.216678-1.0896546l1.5-1.5c.3923789-.3789722 1.0160848-.3735524 1.4018186.0121814s.3911536 1.0094397.0121814 1.4018186l-1.5 1.5c-.1874927.1875494-.4418052.2929434-.707.293z" fill="#38456c" data-original="#f3d55b" class=""/>
          <path id="Shape" d="m51 17.259c-.5522847 0-1-.4477153-1-1v-2c0-.5522847.4477153-1 1-1s1 .4477153 1 1v2c0 .5522847-.4477153 1-1 1z" fill="#38456c" data-original="#f3d55b" class=""/>
          <path id="Shape" d="m51 23.259c-.5522847 0-1-.4477153-1-1v-2c0-.5522847.4477153-1 1-1s1 .4477153 1 1v2c0 .5522847-.4477153 1-1 1z" fill="#38456c" data-original="#f3d55b" class=""/>
          <path id="Shape" d="m55 19.259h-2c-.5522847 0-1-.4477153-1-1s.4477153-1 1-1h2c.5522847 0 1 .4477153 1 1s-.4477153 1-1 1z" fill="#38456c" data-original="#f3d55b" class=""/>
          <path id="Shape" d="m49 19.259h-2c-.5522847 0-1-.4477153-1-1s.4477153-1 1-1h2c.5522847 0 1 .4477153 1 1s-.4477153 1-1 1z" fill="#38456c" data-original="#f3d55b" class=""/>
        </g>
        <path id="Shape" d="m40.03 18.74-9.14 9.15c-.2518722.2536586-.619937.3536765-.9655479.2623781-.3456109-.0912985-.6162614-.360043-.71-.705-.0937387-.3449571.0036756-.7137195.2555479-.9673781l7.57-7.58.09-.08c.8357865-.6836075 2.027797-.7164906 2.9-.08z" fill="#f9c795" data-original="#f9c795"/>
        <path id="Shape" d="m40.03 12.02-12.5 12.5c-.3893607.3921222-1.0228778.3943607-1.415.005s-.3943607-1.0228778-.005-1.415l10.93-10.93.09-.08c.8357865-.6836075 2.027797-.7164906 2.9-.08z" fill="#f9c795" data-original="#f9c795"/>
        <path id="Shape" d="m33.87 11.47-9.7 9.69c-.3893608.3921221-1.0228778.3943607-1.415.005-.3921221-.3893608-.3943607-1.0228778-.005-1.415l8.13-8.13.09-.08c.8362687-.6855128 2.0316308-.7143663 2.9-.07z" fill="#f9c795" data-original="#f9c795"/>
        <path id="Shape" d="m34.42 31.08-6.33 6.33c-.3893608.3921221-1.0228778.3943607-1.415.005-.3921221-.3893608-.3943607-1.0228778-.005-1.415l5.24-5.24.06.14c.7857516-.4044425 1.7317947-.3349373 2.45.18z" fill="#f9c795" data-original="#f9c795"/>
      </g>
    </g>
  </g>
</svg>
